<?xml version="1.0" encoding="utf-8"?>
<!-- Generator: Adobe Illustrator 25.2.3, SVG Export Plug-In . SVG Version: 6.00 Build 0)  -->
<svg version="1.1" baseProfile="tiny" id="圖層_1"
	 xmlns="http://www.w3.org/2000/svg" xmlns:xlink="http://www.w3.org/1999/xlink" x="0px" y="0px" viewBox="0 0 24 24"
	 overflow="visible" xml:space="preserve">
<g id="圖層_1_1_">
	<path fill="#292929" d="M21,10.9h-7.9V3c0.1-0.6-0.4-1.2-1-1.2c-0.6-0.1-1.2,0.4-1.2,1c0,0.1,0,0.1,0,0.2v7.9H3
		c-0.6-0.1-1.2,0.4-1.2,1c-0.1,0.6,0.4,1.2,1,1.2c0.1,0,0.1,0,0.2,0h7.9V21c-0.1,0.6,0.4,1.2,1,1.2c0.6,0.1,1.2-0.4,1.2-1
		c0-0.1,0-0.1,0-0.2v-7.9H21c0.6,0.1,1.2-0.4,1.2-1c0.1-0.6-0.4-1.2-1-1.2C21.1,10.9,21.1,10.9,21,10.9z"/>
</g>
</svg>
