<svg xmlns="http://www.w3.org/2000/svg" xmlns:xlink="http://www.w3.org/1999/xlink" viewBox="0 0 24 24"><defs><style>.cls-1{fill:none;}.cls-2{clip-path:url(#clip-path);}.cls-3{fill:#292929;}</style><clipPath id="clip-path"><path class="cls-1" d="M-100-394.8a1.34,1.34,0,0,1,1.34,1.34,1.34,1.34,0,0,1-1.34,1.33,1.34,1.34,0,0,1-1.33-1.33A1.34,1.34,0,0,1-100-394.8Zm0-3.5a4.84,4.84,0,0,0-4.83,4.84,4.83,4.83,0,0,0,4.83,4.83h0a4.83,4.83,0,0,0,4.81-4.83v0A4.84,4.84,0,0,0-100-398.3Zm0-3a.5.5,0,0,1,.49.41v1.62A5.82,5.82,0,0,1-94.22-394h1.52a.5.5,0,0,1,.5.5.49.49,0,0,1-.41.49h-1.61a5.83,5.83,0,0,1-5.31,5.31v1.52a.5.5,0,0,1-.5.5.5.5,0,0,1-.49-.41v-1.61a5.84,5.84,0,0,1-5.31-5.31h-1.52a.5.5,0,0,1-.5-.5.5.5,0,0,1,.41-.49h1.61a5.82,5.82,0,0,1,5.31-5.31v-1.53A.51.51,0,0,1-100-401.3Z"/></clipPath></defs><g id="圖層_2" data-name="圖層 2"><path class="cls-3" d="M12,10.2A1.8,1.8,0,1,0,13.8,12,1.8,1.8,0,0,0,12,10.2Z"/><path class="cls-3" d="M23,11.1H20.85a8.91,8.91,0,0,0-8-8V1a.9.9,0,0,0-1.8,0V3.14a8.93,8.93,0,0,0-8,8H1a.9.9,0,0,0,0,1.8H3.14a8.92,8.92,0,0,0,8,8V23a.9.9,0,0,0,1.8,0v-2.1a8.9,8.9,0,0,0,8-8H23a.9.9,0,0,0,0-1.8Zm-10.81,8a.47.47,0,0,0-.38,0,7.1,7.1,0,1,1,.38,0Z"/></g></svg>