<svg xmlns="http://www.w3.org/2000/svg" xmlns:xlink="http://www.w3.org/1999/xlink" viewBox="0 0 24 24"><defs><style>.cls-1{fill:none;}.cls-2{clip-path:url(#clip-path);}.cls-3{fill:#292929;}</style><clipPath id="clip-path"><path class="cls-1" d="M-589.81-540.13a1.33,1.33,0,0,1,1.33,1.33,1.33,1.33,0,0,1-1.33,1.33,1.33,1.33,0,0,1-1.34-1.33A1.33,1.33,0,0,1-589.81-540.13Zm0-3.5a4.84,4.84,0,0,0-4.84,4.83,4.84,4.84,0,0,0,4.84,4.83h0A4.83,4.83,0,0,0-585-538.8v0A4.83,4.83,0,0,0-589.81-543.63Zm0-3a.49.49,0,0,1,.49.41v1.61A5.84,5.84,0,0,1-584-539.3h1.52a.5.5,0,0,1,.5.5.5.5,0,0,1-.41.49H-584a5.84,5.84,0,0,1-5.31,5.31v1.52a.5.5,0,0,1-.5.5.5.5,0,0,1-.5-.41V-533a5.84,5.84,0,0,1-5.32-5.31h-1.52a.5.5,0,0,1-.5-.5.5.5,0,0,1,.41-.49h1.61a5.84,5.84,0,0,1,5.32-5.31v-1.52A.5.5,0,0,1-589.81-546.63Z"/></clipPath></defs><title>C_icon_all_20200914</title><g id="圖層_2" data-name="圖層 2"><path class="cls-3" d="M9,23.92a8,8,0,0,1-4-1.07,8.16,8.16,0,0,1-3.88-5.33,9.35,9.35,0,0,1,1.06-6.74L3,9.31a1.13,1.13,0,0,1,2,1.13l-.85,1.47A7.08,7.08,0,0,0,3.32,17a5.92,5.92,0,0,0,2.8,3.88,6.54,6.54,0,0,0,8.79-2.77l6.3-10.87a1.12,1.12,0,1,1,1.94,1.12L16.86,19.26A9.16,9.16,0,0,1,9,23.92Zm.15-5.14A3.47,3.47,0,0,1,7.4,18.3a3.59,3.59,0,0,1-1.71-2.36A4.07,4.07,0,0,1,6.15,13L8.59,8.8a1.12,1.12,0,0,1,1.95,1.12L8.1,14.15a1.82,1.82,0,0,0-.21,1.3,1.36,1.36,0,0,0,.64.91,1.6,1.6,0,0,0,2.12-.74l4.24-7.35a4.39,4.39,0,0,0,.51-3.15,3.51,3.51,0,0,0-1.67-2.34A4,4,0,0,0,8.39,4.52L7.06,6.84A1.13,1.13,0,0,1,5.11,5.71L6.44,3.4A6.25,6.25,0,0,1,14.86.83a5.79,5.79,0,0,1,2.74,3.8,6.63,6.63,0,0,1-.76,4.77L12.6,16.75A4,4,0,0,1,9.17,18.78Z"/></g></svg>