<svg xmlns="http://www.w3.org/2000/svg" xmlns:xlink="http://www.w3.org/1999/xlink" viewBox="0 0 24 24"><defs><style>.cls-1{fill:none;}.cls-2{fill:#292929;}.cls-3{clip-path:url(#clip-path);}</style><clipPath id="clip-path"><path class="cls-1" d="M37.43-429.8a1.33,1.33,0,0,1,1.33,1.34,1.33,1.33,0,0,1-1.33,1.33,1.33,1.33,0,0,1-1.33-1.33A1.33,1.33,0,0,1,37.43-429.8Zm0-3.5a4.84,4.84,0,0,0-4.83,4.84,4.83,4.83,0,0,0,4.83,4.83h0a4.83,4.83,0,0,0,4.8-4.83v0A4.83,4.83,0,0,0,37.43-433.3Zm0-3a.5.5,0,0,1,.49.41v1.62A5.84,5.84,0,0,1,43.24-429h1.52a.5.5,0,0,1,.5.5.5.5,0,0,1-.41.49H43.24a5.84,5.84,0,0,1-5.31,5.31v1.52a.5.5,0,0,1-.5.5.5.5,0,0,1-.49-.41v-1.61A5.84,5.84,0,0,1,31.62-428H30.1a.5.5,0,0,1-.5-.5.49.49,0,0,1,.41-.49h1.61a5.82,5.82,0,0,1,5.31-5.31v-1.53A.5.5,0,0,1,37.43-436.3Z"/></clipPath></defs><g id="圖層_1" data-name="圖層 1"><path class="cls-2" d="M21.41,6.8a1.13,1.13,0,0,0-1.59,0l-7.82,8-7.82-8A1.12,1.12,0,0,0,2.57,8.39l8.63,8.79a1.11,1.11,0,0,0,1.6,0l8.63-8.79A1.12,1.12,0,0,0,21.41,6.8Z"/></g></svg>