<svg xmlns="http://www.w3.org/2000/svg" xmlns:xlink="http://www.w3.org/1999/xlink" viewBox="0 0 24 24"><defs><style>.cls-1{fill:none;}.cls-2{fill:#292929;}.cls-3{clip-path:url(#clip-path);}</style><clipPath id="clip-path"><path class="cls-1" d="M70.93-429.8a1.33,1.33,0,0,1,1.33,1.34,1.33,1.33,0,0,1-1.33,1.33,1.33,1.33,0,0,1-1.33-1.33A1.33,1.33,0,0,1,70.93-429.8Zm0-3.5a4.84,4.84,0,0,0-4.83,4.84,4.83,4.83,0,0,0,4.83,4.83h0a4.83,4.83,0,0,0,4.8-4.83v0A4.83,4.83,0,0,0,70.93-433.3Zm0-3a.5.5,0,0,1,.49.41v1.62A5.84,5.84,0,0,1,76.74-429h1.52a.5.5,0,0,1,.5.5.5.5,0,0,1-.41.49H76.74a5.84,5.84,0,0,1-5.31,5.31v1.52a.5.5,0,0,1-.5.5.5.5,0,0,1-.49-.41v-1.61A5.84,5.84,0,0,1,65.12-428H63.6a.5.5,0,0,1-.5-.5.49.49,0,0,1,.41-.49h1.61a5.82,5.82,0,0,1,5.31-5.31v-1.53A.5.5,0,0,1,70.93-436.3Z"/></clipPath></defs><g id="圖層_1" data-name="圖層 1"><path class="cls-2" d="M20.62,17.51a1.1,1.1,0,0,1-.8-.34L12,9.2l-7.82,8A1.12,1.12,0,1,1,2.57,15.6L11.2,6.81a1.15,1.15,0,0,1,1.6,0l8.63,8.79a1.12,1.12,0,0,1,0,1.59A1.14,1.14,0,0,1,20.62,17.51Z"/></g></svg>