<svg xmlns="http://www.w3.org/2000/svg" xmlns:xlink="http://www.w3.org/1999/xlink" viewBox="0 0 24 24"><defs><style>.cls-1{fill:none;}.cls-2{fill:#292929;}.cls-3{clip-path:url(#clip-path);}</style><clipPath id="clip-path"><path class="cls-1" d="M37.43-394.8a1.33,1.33,0,0,1,1.33,1.34,1.33,1.33,0,0,1-1.33,1.33,1.33,1.33,0,0,1-1.33-1.33A1.33,1.33,0,0,1,37.43-394.8Zm0-3.5a4.84,4.84,0,0,0-4.83,4.84,4.83,4.83,0,0,0,4.83,4.83h0a4.83,4.83,0,0,0,4.8-4.83v0A4.83,4.83,0,0,0,37.43-398.3Zm0-3a.5.5,0,0,1,.49.41v1.62A5.84,5.84,0,0,1,43.24-394h1.52a.5.5,0,0,1,.5.5.5.5,0,0,1-.41.49H43.24a5.84,5.84,0,0,1-5.31,5.31v1.52a.5.5,0,0,1-.5.5.5.5,0,0,1-.49-.41v-1.61A5.84,5.84,0,0,1,31.62-393H30.1a.5.5,0,0,1-.5-.5.49.49,0,0,1,.41-.49h1.61a5.82,5.82,0,0,1,5.31-5.31v-1.53A.5.5,0,0,1,37.43-401.3Z"/></clipPath></defs><g id="圖層_1" data-name="圖層 1"><path class="cls-2" d="M21.57,18.67h-.91c-.19-7.47-.46-9.88-2.93-12.35a7.62,7.62,0,0,0-2.54-1.68V3.29a3.25,3.25,0,0,0-6.5,0V4.54a8.72,8.72,0,0,0-5.06,6.91,33.06,33.06,0,0,0-.32,4.63,1.14,1.14,0,0,0,2.27,0,31.09,31.09,0,0,1,.29-4.28c0-.23.81-5.56,6-5.57a6.18,6.18,0,0,1,4.25,1.69c1.81,1.8,2.07,3.5,2.26,10.75h-16a1.14,1.14,0,0,0,0,2.27H7.26A5.25,5.25,0,0,0,12,24a5.18,5.18,0,0,0,4.74-3h4.83a1.14,1.14,0,0,0,0-2.27ZM11.8,4c-.29,0-.57,0-.84,0V3.29a1,1,0,1,1,2,0V4A7.5,7.5,0,0,0,11.8,4ZM12,21.69a3,3,0,0,1-1.94-.75H14A2.94,2.94,0,0,1,12,21.69Z"/></g></svg>