<svg xmlns="http://www.w3.org/2000/svg" xmlns:xlink="http://www.w3.org/1999/xlink" viewBox="0 0 24 24"><defs><style>.cls-1{fill:none;}.cls-2{fill:#292929;fill-rule:evenodd;}.cls-3{clip-path:url(#clip-path);}</style><clipPath id="clip-path"><path class="cls-1" d="M3.43-360.13a1.33,1.33,0,0,1,1.33,1.33,1.33,1.33,0,0,1-1.33,1.34A1.33,1.33,0,0,1,2.1-358.8,1.33,1.33,0,0,1,3.43-360.13Zm0-3.5A4.83,4.83,0,0,0-1.4-358.8,4.84,4.84,0,0,0,3.43-354h0a4.84,4.84,0,0,0,4.8-4.84v0A4.83,4.83,0,0,0,3.43-363.63Zm0-3a.5.5,0,0,1,.49.41v1.61a5.84,5.84,0,0,1,5.31,5.31h1.52a.5.5,0,0,1,.5.5.51.51,0,0,1-.41.5H9.24A5.84,5.84,0,0,1,3.93-353v1.52a.5.5,0,0,1-.5.5.5.5,0,0,1-.49-.41V-353a5.84,5.84,0,0,1-5.31-5.32H-3.9a.5.5,0,0,1-.5-.5.49.49,0,0,1,.41-.49h1.61a5.84,5.84,0,0,1,5.31-5.31v-1.52A.5.5,0,0,1,3.43-366.63Z"/></clipPath></defs><g id="圖層_1" data-name="圖層 1"><path class="cls-2" d="M19.83,18.79H17.74V5.22h2.09Zm-9-1a2,2,0,0,1-1.11-1.6L12.8,17.6A2,2,0,0,1,10.78,17.83Zm5.39-.35-8.87-4v-3l8.87-3.6ZM5.74,14.61H4.17V9.4H5.74ZM19.83,3.66H17.74a1.56,1.56,0,0,0-1.57,1.56v0l-9,3.6a1.56,1.56,0,0,0-1.47-1H4.17A1.56,1.56,0,0,0,2.61,9.4v5.21a1.56,1.56,0,0,0,1.56,1.57H5.74a1.56,1.56,0,0,0,1.47-1l1,.42a.81.81,0,0,0-.08.34,3.61,3.61,0,0,0,2,3.31,3.15,3.15,0,0,0,1.48.34,3.81,3.81,0,0,0,2.51-1,.74.74,0,0,0,.22-.33l1.91.84a1.55,1.55,0,0,0,1.53,1.25h2.09a1.56,1.56,0,0,0,1.56-1.56V5.21A1.55,1.55,0,0,0,19.83,3.66Z"/></g></svg>