<svg xmlns="http://www.w3.org/2000/svg" xmlns:xlink="http://www.w3.org/1999/xlink" viewBox="0 0 24 24"><defs><style>.cls-1{fill:none;}.cls-2{fill:#292929;fill-rule:evenodd;}.cls-3{clip-path:url(#clip-path);}</style><clipPath id="clip-path"><path class="cls-1" d="M37.93-465.8a1.33,1.33,0,0,1,1.33,1.34,1.33,1.33,0,0,1-1.33,1.33,1.33,1.33,0,0,1-1.33-1.33A1.33,1.33,0,0,1,37.93-465.8Zm0-3.5a4.84,4.84,0,0,0-4.83,4.84,4.83,4.83,0,0,0,4.83,4.83h0a4.83,4.83,0,0,0,4.8-4.83v0A4.83,4.83,0,0,0,37.93-469.3Zm0-3a.5.5,0,0,1,.49.41v1.62A5.84,5.84,0,0,1,43.74-465h1.52a.5.5,0,0,1,.5.5.5.5,0,0,1-.41.49H43.74a5.84,5.84,0,0,1-5.31,5.31v1.52a.5.5,0,0,1-.5.5.5.5,0,0,1-.49-.41v-1.61A5.84,5.84,0,0,1,32.12-464H30.6a.5.5,0,0,1-.5-.5.49.49,0,0,1,.41-.49h1.61a5.82,5.82,0,0,1,5.31-5.31v-1.53A.5.5,0,0,1,37.93-472.3Z"/></clipPath></defs><g id="圖層_1" data-name="圖層 1"><path class="cls-2" d="M12,8.06a5.52,5.52,0,1,0,3.9,1.62A5.5,5.5,0,0,0,12,8.06Zm2.24,8.85a4,4,0,1,1,1.1-5.58A4,4,0,0,1,14.24,16.91Z"/><path class="cls-2" d="M20.7,5.68H18.91L18.16,4a2.88,2.88,0,0,0-2.62-1.7H8.46A2.88,2.88,0,0,0,5.84,4L5.09,5.68H3.3A3.18,3.18,0,0,0,.12,8.85V19.21A3.18,3.18,0,0,0,3.3,22.38H20.7a3.17,3.17,0,0,0,3.17-3.17V8.85A3.17,3.17,0,0,0,20.7,5.68ZM4,9.38H3.5a.75.75,0,1,1,0-1.5H4a.75.75,0,0,1,0,1.5Zm12.63,8.8a6.52,6.52,0,1,1,0-9.21A6.49,6.49,0,0,1,16.61,18.18Z"/></g></svg>