<?xml version="1.0" encoding="utf-8"?>
<!-- Generator: Adobe Illustrator 25.2.3, SVG Export Plug-In . SVG Version: 6.00 Build 0)  -->
<svg version="1.1" baseProfile="tiny" id="圖層_1"
	 xmlns="http://www.w3.org/2000/svg" xmlns:xlink="http://www.w3.org/1999/xlink" x="0px" y="0px" viewBox="0 0 24 24"
	 overflow="visible" xml:space="preserve">
<g id="圖層_2_1_">
	<path fill-rule="evenodd" fill="#292929" d="M23.5,22.2c-1.4-2.7-3.8-4.9-6.6-6c1.6-1.3,2.9-3.8,2.9-8c0-1-0.2-1.9-0.5-2.8
		c-0.3-0.4-1-0.5-1.4-0.2c-0.3,0.2-0.4,0.6-0.4,0.9c0.3,0.7,0.4,1.4,0.4,2.1c0,5.2-1.9,7.7-5.8,7.7s-5.8-2.5-5.8-7.7
		C6.2,5,8.8,2.4,12,2.4c0.9,0,1.8,0.2,2.7,0.7c0.2,0.1,0.3,0.2,0.5,0.3c0.5,0.2,1.1-0.1,1.3-0.6c0.1-0.3,0-0.7-0.2-1
		c-0.2-0.1-0.4-0.3-0.6-0.4C11.8-0.6,7.1,0.9,5.2,4.6C4.6,5.7,4.3,6.9,4.3,8.2c0,4.2,1.2,6.7,2.8,8c-2.9,1.1-5.2,3.3-6.6,6
		c-0.2,0.5,0,1,0.5,1.3c0.5,0.2,1,0,1.3-0.5c0.9-1.8,2.3-3.3,4.1-4.3c0.6,1.7,2.8,3,5.6,3c0.7,0,1.5-0.1,2.2-0.3
		c0.7-0.2,1.4-0.5,2.1-0.9c0.6-0.4,1.1-1.1,1.4-1.8c1.7,1.1,3.1,2.5,4,4.3c0.1,0.5,0.6,0.9,1.1,0.9s0.9-0.6,0.9-1.1
		C23.6,22.5,23.6,22.3,23.5,22.2z M15.1,18.8c-0.4,0.3-0.9,0.5-1.4,0.6c-0.5,0.1-1.1,0.2-1.7,0.2c-2.1,0-3.7-0.9-3.8-1.8
		c0.3-0.1,0.6-0.1,0.9-0.1h5.8c0.3,0,0.6,0,0.9,0.1C15.7,18.3,15.5,18.6,15.1,18.8z"/>
	<path fill-rule="evenodd" fill="#292929" d="M13.9,8.2c-0.6,0-1,0.4-1,1s0.4,1,1,1s1-0.4,1-1S14.5,8.2,13.9,8.2z"/>
	<path fill-rule="evenodd" fill="#292929" d="M9.1,9.1c0,0.6,0.4,1,1,1s1-0.4,1-1s-0.4-1-1-1S9.1,8.6,9.1,9.1z"/>
</g>
</svg>
