<svg xmlns="http://www.w3.org/2000/svg" xmlns:xlink="http://www.w3.org/1999/xlink" viewBox="0 0 24 24"><defs><style>.cls-1{fill:none;}.cls-2,.cls-3{fill:#292929;}.cls-2{fill-rule:evenodd;}.cls-4{clip-path:url(#clip-path);}</style><clipPath id="clip-path"><path class="cls-1" d="M-238.78-429.8a1.34,1.34,0,0,1,1.34,1.34,1.34,1.34,0,0,1-1.34,1.33,1.34,1.34,0,0,1-1.33-1.33A1.34,1.34,0,0,1-238.78-429.8Zm0-3.5a4.84,4.84,0,0,0-4.83,4.84,4.83,4.83,0,0,0,4.83,4.83h0a4.83,4.83,0,0,0,4.81-4.83v0A4.84,4.84,0,0,0-238.78-433.3Zm0-3a.5.5,0,0,1,.49.41v1.62A5.82,5.82,0,0,1-233-429h1.52a.5.5,0,0,1,.5.5.49.49,0,0,1-.41.49H-233a5.83,5.83,0,0,1-5.31,5.31v1.52a.5.5,0,0,1-.5.5.5.5,0,0,1-.49-.41v-1.61a5.84,5.84,0,0,1-5.31-5.31h-1.52a.5.5,0,0,1-.5-.5.5.5,0,0,1,.41-.49h1.61a5.82,5.82,0,0,1,5.31-5.31v-1.53A.51.51,0,0,1-238.78-436.3Z"/></clipPath></defs><title>icon_vote</title><g id="圖層_1" data-name="圖層 1"><path class="cls-2" d="M23,7.62a1.12,1.12,0,0,0-2.09.83,9.59,9.59,0,1,1-1.92-3,1.11,1.11,0,0,0,1.59,0,1.13,1.13,0,0,0,.05-1.59A11.81,11.81,0,1,0,23,7.62Z"/><path class="cls-3" d="M10.3,17.46h0a1.11,1.11,0,0,1-.8-.35l-3.7-3.86a1.12,1.12,0,1,1,1.62-1.56l2.9,3L16.6,8.34a1.12,1.12,0,1,1,1.6,1.58l-7.1,7.2A1.1,1.1,0,0,1,10.3,17.46Z"/></g></svg>