<svg xmlns="http://www.w3.org/2000/svg" xmlns:xlink="http://www.w3.org/1999/xlink" viewBox="0 0 24 24"><defs><style>.cls-1{fill:none;}.cls-2{fill:#292929;fill-rule:evenodd;}.cls-3{clip-path:url(#clip-path);}</style><clipPath id="clip-path"><path class="cls-1" d="M-303.82-429.8a1.33,1.33,0,0,1,1.33,1.34,1.33,1.33,0,0,1-1.33,1.33,1.33,1.33,0,0,1-1.33-1.33A1.33,1.33,0,0,1-303.82-429.8Zm0-3.5a4.84,4.84,0,0,0-4.83,4.84,4.83,4.83,0,0,0,4.83,4.83h0a4.83,4.83,0,0,0,4.8-4.83v0A4.83,4.83,0,0,0-303.82-433.3Zm0-3a.5.5,0,0,1,.49.41v1.62A5.84,5.84,0,0,1-298-429h1.52a.5.5,0,0,1,.5.5.5.5,0,0,1-.41.49H-298a5.84,5.84,0,0,1-5.31,5.31v1.52a.5.5,0,0,1-.5.5.5.5,0,0,1-.49-.41v-1.61a5.84,5.84,0,0,1-5.31-5.31h-1.52a.5.5,0,0,1-.5-.5.49.49,0,0,1,.41-.49h1.61a5.82,5.82,0,0,1,5.31-5.31v-1.53A.5.5,0,0,1-303.82-436.3Z"/></clipPath></defs><g id="圖層_1" data-name="圖層 1"><path class="cls-2" d="M19.5,0H4.5A4.49,4.49,0,0,0,0,4.5v15A4.49,4.49,0,0,0,4.5,24h15A4.49,4.49,0,0,0,24,19.5V4.5A4.49,4.49,0,0,0,19.5,0Zm.16,19.79H4.46V18.26H6.6V11.82H8.23v6.44h3V8.75H13v3.94h5v1.49H13v4.08h6.64Zm-.24-8.43A22.12,22.12,0,0,1,12,6.07a22.26,22.26,0,0,1-7.28,5.27A7.1,7.1,0,0,0,3.58,9.92a18.2,18.2,0,0,0,8.27-6.3l1.51.72c-.12.2-.27.38-.41.58a19.16,19.16,0,0,0,7.55,5A4.12,4.12,0,0,0,19.42,11.36Z"/></g></svg>