<svg xmlns="http://www.w3.org/2000/svg" xmlns:xlink="http://www.w3.org/1999/xlink" viewBox="0 0 24 24"><defs><style>.cls-1{fill:none;}.cls-2{fill:#292929;}.cls-3{clip-path:url(#clip-path);}</style><clipPath id="clip-path"><path class="cls-1" d="M175.68-394.8a1.33,1.33,0,0,1,1.33,1.34,1.33,1.33,0,0,1-1.33,1.33,1.33,1.33,0,0,1-1.33-1.33A1.33,1.33,0,0,1,175.68-394.8Zm0-3.5a4.84,4.84,0,0,0-4.83,4.84,4.83,4.83,0,0,0,4.83,4.83h0a4.83,4.83,0,0,0,4.8-4.83v0A4.83,4.83,0,0,0,175.68-398.3Zm0-3a.5.5,0,0,1,.49.41v1.62a5.84,5.84,0,0,1,5.31,5.31H183a.5.5,0,0,1,.5.5.5.5,0,0,1-.41.49h-1.61a5.84,5.84,0,0,1-5.31,5.31v1.52a.5.5,0,0,1-.5.5.5.5,0,0,1-.49-.41v-1.61a5.84,5.84,0,0,1-5.31-5.31h-1.52a.5.5,0,0,1-.5-.5.49.49,0,0,1,.41-.49h1.61a5.82,5.82,0,0,1,5.31-5.31v-1.53A.5.5,0,0,1,175.68-401.3Z"/></clipPath></defs><g id="圖層_1" data-name="圖層 1"><path class="cls-2" d="M12,19.9s-7.2-5.1-7.2-9.3A4.06,4.06,0,0,1,8.9,6.5,4.48,4.48,0,0,1,12,7.9a4.1,4.1,0,0,1,3.1-1.4,4.06,4.06,0,0,1,4.1,4.1C19.2,15.1,12,19.9,12,19.9ZM12,0A12,12,0,1,0,24,12,12,12,0,0,0,12,0Z"/></g></svg>