<svg xmlns="http://www.w3.org/2000/svg" xmlns:xlink="http://www.w3.org/1999/xlink" viewBox="0 0 24 24"><defs><style>.cls-1{fill:none;}.cls-2{fill:#292929;}.cls-3{clip-path:url(#clip-path);}</style><clipPath id="clip-path"><path class="cls-1" d="M-134.15-465.8a1.34,1.34,0,0,1,1.33,1.34,1.34,1.34,0,0,1-1.33,1.33,1.34,1.34,0,0,1-1.34-1.33A1.34,1.34,0,0,1-134.15-465.8Zm0-3.5a4.84,4.84,0,0,0-4.84,4.84,4.84,4.84,0,0,0,4.84,4.83h0a4.83,4.83,0,0,0,4.81-4.83v0A4.83,4.83,0,0,0-134.15-469.3Zm0-3a.5.5,0,0,1,.49.41v1.62a5.84,5.84,0,0,1,5.31,5.31h1.52a.5.5,0,0,1,.5.5.5.5,0,0,1-.41.49h-1.61a5.84,5.84,0,0,1-5.31,5.31v1.52a.5.5,0,0,1-.5.5.5.5,0,0,1-.49-.41v-1.61A5.82,5.82,0,0,1-140-464h-1.53a.51.51,0,0,1-.5-.5.5.5,0,0,1,.41-.49H-140a5.8,5.8,0,0,1,5.31-5.31v-1.53A.5.5,0,0,1-134.15-472.3Z"/></clipPath></defs><g id="圖層_1" data-name="圖層 1"><path class="cls-2" d="M16.59,11.28a1.47,1.47,0,0,0-1.45,1.08.18.18,0,0,0,.17.23H17.7a.17.17,0,0,0,.17-.2A1.2,1.2,0,0,0,16.59,11.28Z"/><path class="cls-2" d="M9.73,12.59H7.41a.18.18,0,0,0-.17.17v2a.17.17,0,0,0,.17.16h2.2c.35,0,1-.11,1-1.11C10.64,12.58,9.73,12.59,9.73,12.59Z"/><path class="cls-2" d="M7.41,11.28H9.58c.4,0,.76-.13.76-1s-.61-.89-.61-.89H7.41a.17.17,0,0,0-.17.16v1.59A.17.17,0,0,0,7.41,11.28Z"/><path class="cls-2" d="M12,0A12,12,0,1,0,24,12,12,12,0,0,0,12,0Zm2.72,8.19A.16.16,0,0,1,14.88,8h3.2a.16.16,0,0,1,.16.16v.73a.16.16,0,0,1-.16.16h-3.2a.16.16,0,0,1-.16-.16Zm-2.27,5.69c0,2.6-2.72,2.52-2.72,2.52H5.51a.22.22,0,0,1-.23-.22V8.07a.22.22,0,0,1,.23-.22H9.73a2.19,2.19,0,0,1,2.42,2.28,1.5,1.5,0,0,1-.8,1.47.13.13,0,0,0,0,.23C12.54,12.22,12.45,13.88,12.45,13.88Zm7.1-.44a.3.3,0,0,1-.3.3H15.43a.3.3,0,0,0-.3.35,1.38,1.38,0,0,0,1.47,1.13c1,0,1.27-.43,1.35-.7a.29.29,0,0,1,.29-.22h.92a.31.31,0,0,1,.3.35c-.26,2.08-2.91,1.93-2.91,1.93a3,3,0,0,1-3.28-3.27A3.21,3.21,0,0,1,16.55,10C19.42,10,19.58,12.57,19.55,13.44Z"/></g></svg>