<svg xmlns="http://www.w3.org/2000/svg" xmlns:xlink="http://www.w3.org/1999/xlink" viewBox="0 0 24 24"><defs><style>.cls-1{fill:none;}.cls-2{fill:#292929;}.cls-3{clip-path:url(#clip-path);}</style><clipPath id="clip-path"><path class="cls-1" d="M3.6-465.8a1.34,1.34,0,0,1,1.33,1.34,1.34,1.34,0,0,1-1.33,1.33,1.34,1.34,0,0,1-1.34-1.33A1.34,1.34,0,0,1,3.6-465.8Zm0-3.5a4.84,4.84,0,0,0-4.84,4.84,4.84,4.84,0,0,0,4.84,4.83h0a4.83,4.83,0,0,0,4.81-4.83v0A4.83,4.83,0,0,0,3.6-469.3Zm0-3a.5.5,0,0,1,.49.41v1.62A5.84,5.84,0,0,1,9.41-465h1.52a.5.5,0,0,1,.5.5A.5.5,0,0,1,11-464H9.41a5.84,5.84,0,0,1-5.31,5.31v1.52a.5.5,0,0,1-.5.5.5.5,0,0,1-.49-.41v-1.61A5.82,5.82,0,0,1-2.21-464H-3.74a.51.51,0,0,1-.5-.5.5.5,0,0,1,.41-.49h1.62a5.8,5.8,0,0,1,5.31-5.31v-1.53A.5.5,0,0,1,3.6-472.3Z"/></clipPath></defs><g id="圖層_1" data-name="圖層 1"><path class="cls-2" d="M10.74,12.93h0a.34.34,0,0,0,.33-.34V10.12a.33.33,0,0,0-.33-.33h0a.33.33,0,0,0-.33.33v2.47A.34.34,0,0,0,10.74,12.93Zm3.29-.1a.34.34,0,0,0,.09-.24V10.12a.33.33,0,0,0-.33-.33h0a.33.33,0,0,0-.33.33v1.45L12.22,10a.34.34,0,0,0-.29-.16h0a.34.34,0,0,0-.34.33v2.47a.34.34,0,0,0,.34.34h0a.34.34,0,0,0,.34-.34V11.11l1.21,1.66,0,0a.25.25,0,0,0,.13.09l.12,0h0a.47.47,0,0,0,.16,0Zm2.48-1.45v0a.34.34,0,0,0-.34-.34h-.92v-.52h.92a.34.34,0,0,0,.34-.34v0a.34.34,0,0,0-.34-.34H14.88a.34.34,0,0,0-.33.34V12.6a.33.33,0,0,0,.33.33h1.29a.34.34,0,0,0,.34-.33v0a.34.34,0,0,0-.34-.33h-.92v-.53h.92a.34.34,0,0,0,.34-.33Zm-8,1.55H9.8a.34.34,0,0,0,.34-.34v0a.34.34,0,0,0-.34-.34H8.88V10.12a.34.34,0,0,0-.34-.33h0a.33.33,0,0,0-.33.33v2.47A.34.34,0,0,0,8.51,12.93Z"/><path class="cls-2" d="M12,0A12,12,0,1,0,24,12,12,12,0,0,0,12,0Zm5.67,14-.12.14h0a5,5,0,0,1-.69.69c-1.77,1.64-4.68,3.58-5.07,3.28s.55-1.53-.47-1.75l-.21,0h0c-3-.43-5.27-2.53-5.27-5.05,0-2.83,2.86-5.12,6.39-5.12h0c3.54,0,6.4,2.29,6.4,5.12A4.44,4.44,0,0,1,17.67,14Z"/></g></svg>