<svg xmlns="http://www.w3.org/2000/svg" xmlns:xlink="http://www.w3.org/1999/xlink" viewBox="0 0 24 24"><defs><style>.cls-1{fill:none;}.cls-2{fill:#292929;}.cls-3{clip-path:url(#clip-path);}</style><clipPath id="clip-path"><path class="cls-1" d="M-341.9-465.8a1.34,1.34,0,0,1,1.33,1.34,1.34,1.34,0,0,1-1.33,1.33,1.34,1.34,0,0,1-1.34-1.33A1.34,1.34,0,0,1-341.9-465.8Zm0-3.5a4.84,4.84,0,0,0-4.84,4.84,4.84,4.84,0,0,0,4.84,4.83h0a4.83,4.83,0,0,0,4.81-4.83v0A4.83,4.83,0,0,0-341.9-469.3Zm0-3a.5.5,0,0,1,.49.41v1.62a5.84,5.84,0,0,1,5.31,5.31h1.52a.5.5,0,0,1,.5.5.5.5,0,0,1-.41.49h-1.61a5.84,5.84,0,0,1-5.31,5.31v1.52a.5.5,0,0,1-.5.5.5.5,0,0,1-.49-.41v-1.61a5.82,5.82,0,0,1-5.31-5.31h-1.53a.51.51,0,0,1-.5-.5.5.5,0,0,1,.41-.49h1.62a5.8,5.8,0,0,1,5.31-5.31v-1.53A.5.5,0,0,1-341.9-472.3Z"/></clipPath></defs><g id="圖層_1" data-name="圖層 1"><path class="cls-2" d="M9.31,10.25h2.47a.88.88,0,0,0,0-1.75H9.31a.88.88,0,0,0,0,1.75Z"/><path class="cls-2" d="M14.64,13.75H9.36a.88.88,0,0,0,0,1.75h5.28a.88.88,0,0,0,0-1.75Z"/><path class="cls-2" d="M12,0A12,12,0,1,0,24,12,12,12,0,0,0,12,0Zm7,14.73A4.27,4.27,0,0,1,14.74,19H9.26A4.27,4.27,0,0,1,5,14.73V9.27A4.27,4.27,0,0,1,9.26,5h3a4.27,4.27,0,0,1,4.26,4.27c0,.55.11,1,.69,1h1.14A.69.69,0,0,1,19,11Z"/></g></svg>