<svg xmlns="http://www.w3.org/2000/svg" xmlns:xlink="http://www.w3.org/1999/xlink" viewBox="0 0 24 24"><defs><style>.cls-1{fill:none;}.cls-2{fill:#292929;}.cls-3{clip-path:url(#clip-path);}</style><clipPath id="clip-path"><path class="cls-1" d="M-307.15-465.8a1.34,1.34,0,0,1,1.33,1.34,1.34,1.34,0,0,1-1.33,1.33,1.34,1.34,0,0,1-1.34-1.33A1.34,1.34,0,0,1-307.15-465.8Zm0-3.5a4.84,4.84,0,0,0-4.84,4.84,4.84,4.84,0,0,0,4.84,4.83h0a4.83,4.83,0,0,0,4.81-4.83v0A4.83,4.83,0,0,0-307.15-469.3Zm0-3a.5.5,0,0,1,.49.41v1.62a5.84,5.84,0,0,1,5.31,5.31h1.52a.5.5,0,0,1,.5.5.5.5,0,0,1-.41.49h-1.61a5.84,5.84,0,0,1-5.31,5.31v1.52a.5.5,0,0,1-.5.5.5.5,0,0,1-.49-.41v-1.61A5.82,5.82,0,0,1-313-464h-1.53a.51.51,0,0,1-.5-.5.5.5,0,0,1,.41-.49H-313a5.8,5.8,0,0,1,5.31-5.31v-1.53A.5.5,0,0,1-307.15-472.3Z"/></clipPath></defs><g id="圖層_1" data-name="圖層 1"><path class="cls-2" d="M12,0A12,12,0,1,0,24,12,12,12,0,0,0,12,0Zm7,6.68L17.88,7.75a.33.33,0,0,0-.12.31v7.88a.33.33,0,0,0,.12.31L19,17.32v.24H13.48v-.24l1.13-1.1c.11-.11.11-.14.11-.31V9.55l-3.14,8h-.42l-3.66-8V14.9a.73.73,0,0,0,.2.61L9.17,17.3v.23H5V17.3l1.47-1.79a.69.69,0,0,0,.19-.61V8.71a.54.54,0,0,0-.18-.46L5.18,6.68V6.44H9.23l3.14,6.88,2.76-6.88H19Z"/></g></svg>