<svg xmlns="http://www.w3.org/2000/svg" xmlns:xlink="http://www.w3.org/1999/xlink" viewBox="0 0 24 24"><defs><style>.cls-1{fill:none;}.cls-2{fill:#292929;}.cls-3{clip-path:url(#clip-path);}</style><clipPath id="clip-path"><path class="cls-1" d="M37.43-501.8a1.33,1.33,0,0,1,1.33,1.33,1.33,1.33,0,0,1-1.33,1.34,1.33,1.33,0,0,1-1.33-1.34A1.33,1.33,0,0,1,37.43-501.8Zm0-3.5a4.83,4.83,0,0,0-4.83,4.83,4.84,4.84,0,0,0,4.83,4.84h0a4.84,4.84,0,0,0,4.8-4.84v0A4.83,4.83,0,0,0,37.43-505.3Zm0-3a.5.5,0,0,1,.49.41v1.61A5.84,5.84,0,0,1,43.24-501h1.52a.5.5,0,0,1,.5.5.51.51,0,0,1-.41.5H43.24a5.84,5.84,0,0,1-5.31,5.32v1.52a.5.5,0,0,1-.5.5.5.5,0,0,1-.49-.41v-1.61A5.84,5.84,0,0,1,31.62-500H30.1a.5.5,0,0,1-.5-.5A.49.49,0,0,1,30-501h1.61a5.84,5.84,0,0,1,5.31-5.31v-1.52A.5.5,0,0,1,37.43-508.3Z"/></clipPath></defs><g id="圖層_1" data-name="圖層 1"><path class="cls-2" d="M12,24A12,12,0,1,1,24,12,12,12,0,0,1,12,24Zm5.38-9.25a.77.77,0,0,1-.22.52L16,16.41a.77.77,0,0,1-.53.21.83.83,0,0,1-.54-.21l-1.6-1.62a.75.75,0,0,1,0-1.07l0,0c.25.25.47.56.87.56A.76.76,0,0,0,15,13.5c0-.4-.31-.62-.56-.88a.76.76,0,0,1,1.07,0l0,0,1.63,1.63A.75.75,0,0,1,17.38,14.75Zm-5.5-5.51a.73.73,0,0,1-.26.57c-.25-.25-.47-.56-.87-.56A.76.76,0,0,0,10,10c0,.4.31.62.56.88a.77.77,0,0,1-1.09,0L7.84,9.28a.74.74,0,0,1,0-1h0L9,7.09a.84.84,0,0,1,.53-.22.75.75,0,0,1,.53.22l1.61,1.62a.77.77,0,0,1,.22.53Zm7,5.51a2.22,2.22,0,0,0-.66-1.59l-1.63-1.63A2.2,2.2,0,0,0,15,10.88a2.24,2.24,0,0,0-1.62.68l-.69-.68a2.35,2.35,0,0,0,.69-1.64,2.23,2.23,0,0,0-.65-1.58L11.12,6A2.25,2.25,0,0,0,7.94,6L6.79,7.16a2.3,2.3,0,0,0-.67,1.59,2.22,2.22,0,0,0,.66,1.59L8.41,12a2.27,2.27,0,0,0,3.21,0l.69.68a2.33,2.33,0,0,0-.69,1.64,2.23,2.23,0,0,0,.65,1.58l1.61,1.62a2.27,2.27,0,0,0,3.18,0l1.15-1.14A2.28,2.28,0,0,0,18.88,14.75Z"/></g></svg>