<?xml version="1.0" encoding="utf-8"?>
<!-- Generator: Adobe Illustrator 25.2.3, SVG Export Plug-In . SVG Version: 6.00 Build 0)  -->
<svg version="1.1" baseProfile="tiny" id="圖層_1"
	 xmlns="http://www.w3.org/2000/svg" xmlns:xlink="http://www.w3.org/1999/xlink" x="0px" y="0px" viewBox="0 0 24 24"
	 overflow="visible" xml:space="preserve">
<g id="圖層_1_1_">
	<path fill="#292929" d="M12,0C5.4,0,0,5.4,0,12s5.4,12,12,12s12-5.4,12-12S18.6,0,12,0z M9,17.4c0,0.1-0.1,0.2-0.2,0.2c0,0,0,0,0,0
		H6.5c-0.1,0-0.2-0.1-0.2-0.2c0,0,0,0,0,0V9.6c0-0.1,0.1-0.2,0.2-0.2h2.3C8.9,9.4,9,9.5,9,9.6V17.4z M7.6,8.4C6.8,8.4,6.1,7.8,6.1,7
		c0-0.8,0.6-1.5,1.4-1.5C8.3,5.5,9,6.1,9,6.9c0,0,0,0,0,0C9,7.7,8.4,8.4,7.6,8.4z M18.8,17.4c0,0.1-0.1,0.2-0.2,0.2c0,0,0,0,0,0
		h-2.3c-0.1,0-0.2-0.1-0.2-0.2c0,0,0,0,0,0v-4.2c0-1.1-0.4-1.9-1.4-1.9c-0.6,0-1.2,0.4-1.4,1c-0.1,0.2-0.1,0.4-0.1,0.7v4.4
		c0,0.1-0.1,0.2-0.2,0.2c0,0,0,0,0,0h-2.3c-0.1,0-0.2-0.1-0.2-0.2c0,0,0,0,0,0c0-1.1,0-6.5,0-7.8c0-0.1,0.1-0.2,0.2-0.2c0,0,0,0,0,0
		H13c0.1,0,0.2,0.1,0.2,0.2v1c0.5-0.9,1.4-1.4,2.4-1.4c1.8,0,3.1,1.2,3.1,3.7L18.8,17.4z"/>
</g>
</svg>
