<svg xmlns="http://www.w3.org/2000/svg" xmlns:xlink="http://www.w3.org/1999/xlink" viewBox="0 0 24 24"><defs><style>.cls-1{fill:none;}.cls-2{fill:#292929;}.cls-3{clip-path:url(#clip-path);}</style><clipPath id="clip-path"><path class="cls-1" d="M139.06-501.8a1.34,1.34,0,0,1,1.33,1.33,1.34,1.34,0,0,1-1.33,1.34,1.34,1.34,0,0,1-1.34-1.34A1.34,1.34,0,0,1,139.06-501.8Zm0-3.5a4.84,4.84,0,0,0-4.84,4.83,4.84,4.84,0,0,0,4.84,4.84h0a4.84,4.84,0,0,0,4.81-4.84v0A4.84,4.84,0,0,0,139.06-505.3Zm0-3a.5.5,0,0,1,.49.41v1.61a5.84,5.84,0,0,1,5.31,5.31h1.52a.51.51,0,0,1,.5.5.51.51,0,0,1-.41.5h-1.61a5.84,5.84,0,0,1-5.31,5.32v1.52a.51.51,0,0,1-.5.5.51.51,0,0,1-.5-.41v-1.61a5.84,5.84,0,0,1-5.32-5.32h-1.52a.5.5,0,0,1-.5-.5.5.5,0,0,1,.41-.49h1.61a5.84,5.84,0,0,1,5.32-5.31v-1.52A.5.5,0,0,1,139.06-508.3Z"/></clipPath></defs><g id="圖層_1" data-name="圖層 1"><path class="cls-2" d="M14.88,14.23a2,2,0,0,0-1.19.41L9.78,12.32c0-.1,0-.2,0-.3s0-.19,0-.29l3.86-2.3a2,2,0,0,0,1.24.43,2.06,2.06,0,1,0-2-2,1.5,1.5,0,0,0,0,.29L9,10.4A2,2,0,0,0,7.78,10a2.06,2.06,0,0,0,0,4.11A2,2,0,0,0,9,13.65L12.92,16a1.23,1.23,0,0,0,0,.27,2,2,0,1,0,2-2ZM12,0A12,12,0,1,1,0,12,12,12,0,0,1,12,0Z"/></g></svg>