<svg xmlns="http://www.w3.org/2000/svg" xmlns:xlink="http://www.w3.org/1999/xlink" viewBox="0 0 24 24"><defs><style>.cls-1{fill:none;}.cls-2{fill:#292929;}.cls-3{clip-path:url(#clip-path);}</style><clipPath id="clip-path"><path class="cls-1" d="M-234.86-465.8a1.33,1.33,0,0,1,1.33,1.34,1.33,1.33,0,0,1-1.33,1.33,1.33,1.33,0,0,1-1.33-1.33A1.33,1.33,0,0,1-234.86-465.8Zm0-3.5a4.84,4.84,0,0,0-4.83,4.84,4.83,4.83,0,0,0,4.83,4.83h0a4.83,4.83,0,0,0,4.8-4.83v0A4.83,4.83,0,0,0-234.86-469.3Zm0-3a.5.5,0,0,1,.49.41v1.62A5.84,5.84,0,0,1-229-465h1.52a.5.5,0,0,1,.5.5.5.5,0,0,1-.41.49H-229a5.84,5.84,0,0,1-5.31,5.31v1.52a.5.5,0,0,1-.5.5.5.5,0,0,1-.49-.41v-1.61a5.84,5.84,0,0,1-5.31-5.31h-1.52a.5.5,0,0,1-.5-.5.49.49,0,0,1,.41-.49h1.61a5.82,5.82,0,0,1,5.31-5.31v-1.53A.5.5,0,0,1-234.86-472.3Z"/></clipPath></defs><g id="圖層_1" data-name="圖層 1"><path class="cls-2" d="M12,0A12,12,0,1,0,24,12,12,12,0,0,0,12,0Zm-.3,5.62L16.91,10l-.86,1L10.84,6.65Zm-2,2.8,6.14,2.88-.56,1.23L9.14,9.67ZM8.54,11.5l6.63,1.38-.28,1.34L8.26,12.83Zm-.42,3.07h6.77v1.35H8.12Zm9.49,4.07H5.41V13.22H6.77v4.07h9.49V13.22h1.35Zm-.45-9-4-5.44,1.09-.81,4,5.44Z"/></g></svg>