<svg xmlns="http://www.w3.org/2000/svg" xmlns:xlink="http://www.w3.org/1999/xlink" viewBox="0 0 24 24"><defs><style>.cls-1{fill:none;}.cls-2{fill:#292929;fill-rule:evenodd;}.cls-3{clip-path:url(#clip-path);}</style><clipPath id="clip-path"><path class="cls-1" d="M37.43-360.13a1.33,1.33,0,0,1,1.33,1.33,1.33,1.33,0,0,1-1.33,1.34,1.33,1.33,0,0,1-1.33-1.34A1.33,1.33,0,0,1,37.43-360.13Zm0-3.5a4.83,4.83,0,0,0-4.83,4.83A4.84,4.84,0,0,0,37.43-354h0a4.84,4.84,0,0,0,4.8-4.84v0A4.83,4.83,0,0,0,37.43-363.63Zm0-3a.5.5,0,0,1,.49.41v1.61a5.84,5.84,0,0,1,5.31,5.31h1.52a.5.5,0,0,1,.5.5.51.51,0,0,1-.41.5H43.24A5.84,5.84,0,0,1,37.93-353v1.52a.5.5,0,0,1-.5.5.5.5,0,0,1-.49-.41V-353a5.84,5.84,0,0,1-5.31-5.32H30.1a.5.5,0,0,1-.5-.5.49.49,0,0,1,.41-.49h1.61a5.84,5.84,0,0,1,5.31-5.31v-1.52A.5.5,0,0,1,37.43-366.63Z"/></clipPath></defs><g id="圖層_1" data-name="圖層 1"><path class="cls-2" d="M12,0A12,12,0,1,0,24,12,12,12,0,0,0,12,0m5.67,11.5a1.2,1.2,0,0,1-.84.35,1.18,1.18,0,0,1-.8-.32h0L13.23,8.75V17.8a1.2,1.2,0,0,1-2.4,0V8.7L8,11.54H8a1.16,1.16,0,0,1-.79.32,1.2,1.2,0,0,1-.85-2l4.18-4.19a2.12,2.12,0,0,1,3,0L17.67,9.8a1.2,1.2,0,0,1,0,1.7"/></g></svg>