<svg xmlns="http://www.w3.org/2000/svg" xmlns:xlink="http://www.w3.org/1999/xlink" viewBox="0 0 24 24"><defs><style>.cls-1{fill:none;}.cls-2{clip-path:url(#clip-path);}.cls-3{fill:#292929;fill-rule:evenodd;}</style><clipPath id="clip-path"><path class="cls-1" d="M-525.71-540.13a1.32,1.32,0,0,1,1.33,1.33,1.32,1.32,0,0,1-1.33,1.33A1.32,1.32,0,0,1-527-538.8,1.32,1.32,0,0,1-525.71-540.13Zm0-3.5a4.83,4.83,0,0,0-4.83,4.83,4.83,4.83,0,0,0,4.83,4.83h0a4.83,4.83,0,0,0,4.8-4.83v0A4.83,4.83,0,0,0-525.71-543.63Zm0-3a.49.49,0,0,1,.49.41v1.61a5.84,5.84,0,0,1,5.31,5.31h1.52a.5.5,0,0,1,.5.5.5.5,0,0,1-.41.49h-1.61a5.84,5.84,0,0,1-5.31,5.31v1.52a.5.5,0,0,1-.5.5.49.49,0,0,1-.49-.41V-533a5.84,5.84,0,0,1-5.31-5.31H-533a.5.5,0,0,1-.5-.5.49.49,0,0,1,.41-.49h1.61a5.84,5.84,0,0,1,5.31-5.31v-1.52A.5.5,0,0,1-525.71-546.63Z"/></clipPath></defs><g id="圖層_2" data-name="圖層 2"><path class="cls-3" d="M8.2,5.3A1.2,1.2,0,0,0,7,6.5V18.27A1.19,1.19,0,0,0,8.2,19.35h.12A1.19,1.19,0,0,0,9.4,18.15V14h7.66a1,1,0,0,0,.46-.11A1,1,0,0,0,18,12.54l-1.06-2,1.06-2A1,1,0,0,0,18.06,8a1,1,0,0,0-1-1H9.4V6.38A1.21,1.21,0,0,0,8.2,5.3ZM12,0A12,12,0,1,1,0,12,12,12,0,0,1,12,0Z"/></g></svg>