<svg xmlns="http://www.w3.org/2000/svg" xmlns:xlink="http://www.w3.org/1999/xlink" viewBox="0 0 24 24"><defs><style>.cls-1{fill:none;}.cls-2{fill:#292929;}.cls-3{clip-path:url(#clip-path);}</style><clipPath id="clip-path"><path class="cls-1" d="M139.06-394.8a1.34,1.34,0,0,1,1.33,1.34,1.34,1.34,0,0,1-1.33,1.33,1.34,1.34,0,0,1-1.34-1.33A1.34,1.34,0,0,1,139.06-394.8Zm0-3.5a4.84,4.84,0,0,0-4.84,4.84,4.84,4.84,0,0,0,4.84,4.83h0a4.83,4.83,0,0,0,4.81-4.83v0A4.84,4.84,0,0,0,139.06-398.3Zm0-3a.5.5,0,0,1,.49.41v1.62a5.84,5.84,0,0,1,5.31,5.31h1.52a.5.5,0,0,1,.5.5.5.5,0,0,1-.41.49h-1.61a5.84,5.84,0,0,1-5.31,5.31v1.52a.5.5,0,0,1-.5.5.51.51,0,0,1-.5-.41v-1.61a5.84,5.84,0,0,1-5.32-5.31h-1.52a.51.51,0,0,1-.5-.5.5.5,0,0,1,.41-.49h1.61a5.82,5.82,0,0,1,5.32-5.31v-1.53A.5.5,0,0,1,139.06-401.3Z"/></clipPath></defs><g id="圖層_1" data-name="圖層 1"><g id="Page-1"><g id="icon24_icon_profession_default" data-name="icon24/icon_profession_default"><g id="icon_profession_default" data-name="icon profession default"><path id="Path" class="cls-2" d="M14.9,7.3a.22.22,0,0,0-.2-.2H9.9a.22.22,0,0,0-.2.2V9.2h5.2Z"/><path id="Shape" class="cls-2" d="M12,24A11.87,11.87,0,0,0,24,12.2V12A12,12,0,1,0,12,24ZM4.7,10.4A1.22,1.22,0,0,1,5.9,9.2H7.1V6.5A1.41,1.41,0,0,1,8.3,5.1h7.5a1.7,1.7,0,0,1,1.5,1.4V9.1h1.2a1.22,1.22,0,0,1,1.2,1.2v6.9a1.22,1.22,0,0,1-1.2,1.2H5.9a1.22,1.22,0,0,1-1.2-1.2Z"/></g></g></g></g></svg>