<?xml version="1.0" encoding="utf-8"?>
<!-- Generator: Adobe Illustrator 25.2.3, SVG Export Plug-In . SVG Version: 6.00 Build 0)  -->
<svg version="1.1" baseProfile="tiny" id="圖層_1"
	 xmlns="http://www.w3.org/2000/svg" xmlns:xlink="http://www.w3.org/1999/xlink" x="0px" y="0px" viewBox="0 0 24 24"
	 overflow="visible" xml:space="preserve">
<g id="圖層_1_1_">
	<path fill="#292929" d="M10.4,14.4l4.2-2.4c-1.4-0.8-2.8-1.6-4.2-2.5L10.4,14.4z"/>
	<path fill="#292929" d="M12,0C5.4,0,0,5.4,0,12s5.4,12,12,12s12-5.4,12-12S18.6,0,12,0z M20,15c-0.1,0.9-0.4,2-1.4,2.3
		c-1.1,0.3-2.3,0.5-3.5,0.4c-1.7,0-3.4,0.1-5.1,0.1c-0.8,0-1.6,0-2.4,0c-0.8,0-1.6-0.2-2.3-0.4C4,16.7,4,15.1,3.9,13.9
		c0-1,0-1.9,0-2.9c-0.1-1.1,0-2.2,0.4-3.3C4.8,6.7,5.9,6.5,7,6.4c0.9-0.1,1.8-0.1,2.7-0.1c1.7,0,3.5-0.1,5.2,0
		c0.9,0,1.7,0.1,2.6,0.2c0.7,0,1.4,0.3,1.9,0.8C19.8,8,20,8.8,20,9.6v0.6c0,0.7,0,1.4,0,2C20.1,13.1,20.1,14.1,20,15z"/>
</g>
</svg>
