<svg xmlns="http://www.w3.org/2000/svg" xmlns:xlink="http://www.w3.org/1999/xlink" viewBox="0 0 24 24"><defs><style>.cls-1{fill:none;}.cls-2{fill:#292929;}.cls-3{clip-path:url(#clip-path);}</style><clipPath id="clip-path"><path class="cls-1" d="M-271.15-465.8a1.34,1.34,0,0,1,1.33,1.34,1.34,1.34,0,0,1-1.33,1.33,1.34,1.34,0,0,1-1.34-1.33A1.34,1.34,0,0,1-271.15-465.8Zm0-3.5a4.84,4.84,0,0,0-4.84,4.84,4.84,4.84,0,0,0,4.84,4.83h0a4.83,4.83,0,0,0,4.81-4.83v0A4.83,4.83,0,0,0-271.15-469.3Zm0-3a.5.5,0,0,1,.49.41v1.62a5.84,5.84,0,0,1,5.31,5.31h1.52a.5.5,0,0,1,.5.5.5.5,0,0,1-.41.49h-1.61a5.84,5.84,0,0,1-5.31,5.31v1.52a.5.5,0,0,1-.5.5.5.5,0,0,1-.49-.41v-1.61A5.82,5.82,0,0,1-277-464h-1.53a.51.51,0,0,1-.5-.5.5.5,0,0,1,.41-.49H-277a5.8,5.8,0,0,1,5.31-5.31v-1.53A.5.5,0,0,1-271.15-472.3Z"/></clipPath></defs><g id="圖層_1" data-name="圖層 1"><path class="cls-2" d="M12,0A12.1,12.1,0,0,0,0,12.19,12.14,12.14,0,0,0,9.09,24,2,2,0,0,1,9,23.41V21.32H7.49a2.06,2.06,0,0,1-1.9-1c-.4-.74-.46-1.87-1.44-2.57-.29-.23-.07-.49.27-.45A3.1,3.1,0,0,1,6,18.52a1.55,1.55,0,0,0,1.6.78,12.35,12.35,0,0,0,1.69-.12,3.8,3.8,0,0,1,1.59-2C6.9,16.77,5,14.75,5,12A5,5,0,0,1,6.33,8.72c-.28-1-.62-2.9.11-3.64a4.16,4.16,0,0,1,3.14,1.5,8.95,8.95,0,0,1,5.84,0,4.15,4.15,0,0,1,3.15-1.5c.73.74.38,2.7.1,3.65A5,5,0,0,1,20,12c0,2.73-1.9,4.75-5.89,5.17A4.29,4.29,0,0,1,16,20.63v2.78a2.23,2.23,0,0,1,0,.27,12.16,12.16,0,0,0,8-11.49A12.1,12.1,0,0,0,12,0Z"/></g></svg>