<svg xmlns="http://www.w3.org/2000/svg" xmlns:xlink="http://www.w3.org/1999/xlink" viewBox="0 0 24 24"><defs><style>.cls-1{fill:none;}.cls-2{fill:#292929;}.cls-3{clip-path:url(#clip-path);}</style><clipPath id="clip-path"><path class="cls-1" d="M-203.11-465.8a1.33,1.33,0,0,1,1.33,1.34,1.33,1.33,0,0,1-1.33,1.33,1.33,1.33,0,0,1-1.33-1.33A1.33,1.33,0,0,1-203.11-465.8Zm0-3.5a4.84,4.84,0,0,0-4.83,4.84,4.83,4.83,0,0,0,4.83,4.83h0a4.83,4.83,0,0,0,4.8-4.83v0A4.83,4.83,0,0,0-203.11-469.3Zm0-3a.5.5,0,0,1,.49.41v1.62A5.84,5.84,0,0,1-197.3-465h1.52a.5.5,0,0,1,.5.5.5.5,0,0,1-.41.49h-1.61a5.84,5.84,0,0,1-5.31,5.31v1.52a.5.5,0,0,1-.5.5.5.5,0,0,1-.49-.41v-1.61a5.84,5.84,0,0,1-5.31-5.31h-1.52a.5.5,0,0,1-.5-.5.49.49,0,0,1,.41-.49h1.61a5.82,5.82,0,0,1,5.31-5.31v-1.53A.5.5,0,0,1-203.11-472.3Z"/></clipPath></defs><g id="圖層_1" data-name="圖層 1"><path class="cls-2" d="M12.1,9.61A2.39,2.39,0,1,0,14.49,12,2.39,2.39,0,0,0,12.1,9.61Z"/><path class="cls-2" d="M12,0A12,12,0,1,0,24,12,12,12,0,0,0,12,0Zm7.62,14.91a4.54,4.54,0,0,1-4.54,4.54h-6a4.55,4.55,0,0,1-4.55-4.54v-6A4.55,4.55,0,0,1,9.07,4.35h6A4.55,4.55,0,0,1,19.62,8.9Z"/><path class="cls-2" d="M15.08,5.78h-6A3.11,3.11,0,0,0,6,8.9v6A3.12,3.12,0,0,0,9.07,18h6a3.12,3.12,0,0,0,3.12-3.12v-6A3.12,3.12,0,0,0,15.08,5.78Zm-3,10A3.73,3.73,0,1,1,15.83,12,3.73,3.73,0,0,1,12.1,15.73Zm4-6.82A.89.89,0,1,1,16.93,8,.89.89,0,0,1,16.05,8.91Z"/></g></svg>