<svg xmlns="http://www.w3.org/2000/svg" xmlns:xlink="http://www.w3.org/1999/xlink" viewBox="0 0 24 24"><defs><style>.cls-1{fill:none;}.cls-2{fill:#292929;}.cls-3{clip-path:url(#clip-path);}</style><clipPath id="clip-path"><path class="cls-1" d="M70.93-501.8a1.33,1.33,0,0,1,1.33,1.33,1.33,1.33,0,0,1-1.33,1.34,1.33,1.33,0,0,1-1.33-1.34A1.33,1.33,0,0,1,70.93-501.8Zm0-3.5a4.83,4.83,0,0,0-4.83,4.83,4.84,4.84,0,0,0,4.83,4.84h0a4.84,4.84,0,0,0,4.8-4.84v0A4.83,4.83,0,0,0,70.93-505.3Zm0-3a.5.5,0,0,1,.49.41v1.61A5.84,5.84,0,0,1,76.74-501h1.52a.5.5,0,0,1,.5.5.51.51,0,0,1-.41.5H76.74a5.84,5.84,0,0,1-5.31,5.32v1.52a.5.5,0,0,1-.5.5.5.5,0,0,1-.49-.41v-1.61A5.84,5.84,0,0,1,65.12-500H63.6a.5.5,0,0,1-.5-.5.49.49,0,0,1,.41-.49h1.61a5.84,5.84,0,0,1,5.31-5.31v-1.52A.5.5,0,0,1,70.93-508.3Z"/></clipPath></defs><g id="圖層_1" data-name="圖層 1"><path class="cls-2" d="M12,24A12,12,0,1,1,24,12,12,12,0,0,1,12,24Zm6.41-13.7c-.58.46-1.35,1-4,3A4.6,4.6,0,0,1,12,14.5a4.65,4.65,0,0,1-2.4-1.24c-2.66-1.93-3.43-2.5-4-2.95a.15.15,0,0,0-.22,0,.13.13,0,0,0,0,.1v5.32A1.25,1.25,0,0,0,6.58,17H17.42a1.25,1.25,0,0,0,1.25-1.25V10.42a.16.16,0,0,0-.16-.15A.17.17,0,0,0,18.41,10.3ZM12,13.67c.6,0,1.47-.76,1.91-1.08,3.46-2.51,3.72-2.73,4.52-3.35a.64.64,0,0,0,.24-.5V8.25A1.25,1.25,0,0,0,17.42,7H6.58A1.25,1.25,0,0,0,5.33,8.25v.49a.64.64,0,0,0,.24.5c.8.62,1.06.84,4.52,3.35C10.53,12.91,11.4,13.68,12,13.67Z"/></g></svg>