<svg xmlns="http://www.w3.org/2000/svg" xmlns:xlink="http://www.w3.org/1999/xlink" viewBox="0 0 24 24"><defs><style>.cls-1{fill:none;}.cls-2{fill:#292929;fill-rule:evenodd;}.cls-3{clip-path:url(#clip-path);}</style><clipPath id="clip-path"><path class="cls-1" d="M103.72-501.8a1.34,1.34,0,0,1,1.34,1.33,1.34,1.34,0,0,1-1.34,1.34,1.34,1.34,0,0,1-1.33-1.34A1.34,1.34,0,0,1,103.72-501.8Zm0-3.5a4.83,4.83,0,0,0-4.83,4.83,4.84,4.84,0,0,0,4.83,4.84h0a4.84,4.84,0,0,0,4.81-4.84v0A4.84,4.84,0,0,0,103.72-505.3Zm0-3a.5.5,0,0,1,.49.41v1.61a5.82,5.82,0,0,1,5.31,5.31h1.52a.5.5,0,0,1,.5.5.5.5,0,0,1-.41.5h-1.61a5.83,5.83,0,0,1-5.31,5.32v1.52a.5.5,0,0,1-.5.5.5.5,0,0,1-.49-.41v-1.61A5.84,5.84,0,0,1,97.91-500H96.39a.5.5,0,0,1-.5-.5.5.5,0,0,1,.41-.49h1.61a5.84,5.84,0,0,1,5.31-5.31v-1.52A.5.5,0,0,1,103.72-508.3Z"/></clipPath></defs><g id="圖層_1" data-name="圖層 1"><path class="cls-2" d="M9.19,15.23a2.59,2.59,0,0,1-2.33-2.79A2.59,2.59,0,0,1,9.19,9.65a2.59,2.59,0,0,1,2.32,2.79A2.59,2.59,0,0,1,9.19,15.23Zm0-4.65c-.77,0-1.4.84-1.4,1.86s.63,1.86,1.4,1.86,1.39-.83,1.39-1.86S10,10.58,9.19,10.58Zm4.18-.8V8.72h4.69L15.2,10.94Zm0,5.45V10.88l1.61,1a.46.46,0,0,0,.25.08.53.53,0,0,0,.29-.1L19,9.21v6Zm0,.93h6.05a.47.47,0,0,0,.46-.46V8.26a.47.47,0,0,0-.46-.47H13.37V5.47a.46.46,0,0,0-.17-.36.44.44,0,0,0-.38-.1L5.38,6.4A.48.48,0,0,0,5,6.86V17.09a.46.46,0,0,0,.38.46l7.44,1.39h.09a.45.45,0,0,0,.29-.1.48.48,0,0,0,.17-.36ZM12,24A12,12,0,1,1,24,12,12,12,0,0,1,12,24Z"/></g></svg>