<svg xmlns="http://www.w3.org/2000/svg" xmlns:xlink="http://www.w3.org/1999/xlink" viewBox="0 0 24 24"><defs><style>.cls-1{fill:none;}.cls-2{fill:#292929;}.cls-3{clip-path:url(#clip-path);}</style><clipPath id="clip-path"><path class="cls-1" d="M-375.57-465.8a1.34,1.34,0,0,1,1.34,1.34,1.34,1.34,0,0,1-1.34,1.33,1.34,1.34,0,0,1-1.33-1.33A1.34,1.34,0,0,1-375.57-465.8Zm0-3.5a4.84,4.84,0,0,0-4.83,4.84,4.83,4.83,0,0,0,4.83,4.83h0a4.83,4.83,0,0,0,4.81-4.83v0A4.84,4.84,0,0,0-375.57-469.3Zm0-3a.5.5,0,0,1,.49.41v1.62a5.83,5.83,0,0,1,5.31,5.31h1.52a.5.5,0,0,1,.5.5.49.49,0,0,1-.41.49h-1.61a5.83,5.83,0,0,1-5.31,5.31v1.52a.5.5,0,0,1-.5.5.5.5,0,0,1-.49-.41v-1.61a5.84,5.84,0,0,1-5.31-5.31h-1.52a.5.5,0,0,1-.5-.5.5.5,0,0,1,.41-.49h1.61a5.82,5.82,0,0,1,5.31-5.31v-1.53A.51.51,0,0,1-375.57-472.3Z"/></clipPath></defs><title>C_icon_all_20200914</title><g id="圖層_1" data-name="圖層 1"><path class="cls-2" d="M24,12A12,12,0,1,1,12,0,12,12,0,0,1,24,12ZM9.8,18.33A8.18,8.18,0,0,0,18,10.1c0-.13,0-.25,0-.37a6.08,6.08,0,0,0,1.45-1.5,6.15,6.15,0,0,1-1.67.45,2.91,2.91,0,0,0,1.28-1.6,5.85,5.85,0,0,1-1.84.7,2.89,2.89,0,0,0-5,2,2.84,2.84,0,0,0,.07.66,8.22,8.22,0,0,1-6-3A2.83,2.83,0,0,0,6,8.85a2.9,2.9,0,0,0,1.29,2.41A3,3,0,0,1,6,10.9v0a2.9,2.9,0,0,0,2.32,2.84,2.68,2.68,0,0,1-.76.1,3.29,3.29,0,0,1-.54,0,2.89,2.89,0,0,0,2.7,2,5.84,5.84,0,0,1-3.6,1.23,5.32,5.32,0,0,1-.69,0A8.05,8.05,0,0,0,9.8,18.33"/></g></svg>