<?xml version="1.0" encoding="utf-8"?>
<!-- Generator: Adobe Illustrator 25.2.3, SVG Export Plug-In . SVG Version: 6.00 Build 0)  -->
<svg version="1.1" baseProfile="tiny" id="圖層_1"
	 xmlns="http://www.w3.org/2000/svg" xmlns:xlink="http://www.w3.org/1999/xlink" x="0px" y="0px" viewBox="0 0 24 24"
	 overflow="visible" xml:space="preserve">
<g id="圖層_1_1_">
	<path fill="#292929" d="M12.6,12c0.1,0,0.1-0.1,0.1-0.1c0,0,0,0,0,0c-0.1-0.3-0.2-0.6-0.4-0.8c0-0.1-0.1-0.1-0.1-0.1
		c-2.2,0.6-4.4,1-6.7,1c-0.1,0-0.1,0.1-0.1,0.1c0,0,0,0,0,0c0,1.5,0.5,3,1.4,4.1c0,0.1,0.1,0.1,0.2,0c0,0,0,0,0,0
		C8.5,14.3,10.4,12.8,12.6,12z"/>
	<path fill="#292929" d="M13.2,13.3c-2.1,0.7-3.8,2-5.1,3.8c0,0,0,0.1,0,0.2c0,0,0,0,0,0c1.1,0.8,2.5,1.3,3.9,1.3
		c0.8,0,1.6-0.2,2.4-0.5c0,0,0.1-0.1,0.1-0.1c-0.2-1.6-0.6-3.1-1.2-4.6C13.3,13.3,13.3,13.3,13.2,13.3
		C13.2,13.3,13.2,13.3,13.2,13.3z"/>
	<path fill="#292929" d="M12.9,9.1c0,0,0.1,0,0.2,0c1.1-0.5,2.1-1.2,3-2.1c0-0.1,0-0.1,0-0.2c-1.2-0.9-2.6-1.4-4.1-1.4
		c-0.4,0-0.8,0-1.2,0.1c-0.1,0-0.1,0.1-0.1,0.1c0,0,0,0,0,0.1C11.6,6.8,12.3,7.9,12.9,9.1z"/>
	<path fill="#292929" d="M5.8,10.5c1.9,0,3.9-0.3,5.7-0.8c0.1,0,0.1-0.1,0.1-0.2c0,0,0,0,0,0c-0.7-1.2-1.4-2.3-2.3-3.4
		c0,0-0.1,0-0.1,0c-1.7,0.8-3,2.4-3.5,4.2C5.6,10.4,5.7,10.5,5.8,10.5C5.8,10.5,5.8,10.5,5.8,10.5z"/>
	<path fill="#292929" d="M18.3,13.2C17.2,13,16,12.9,14.9,13c-0.1,0-0.1,0.1-0.1,0.1c0,0,0,0,0,0c0.5,1.3,0.8,2.6,1.1,4
		c0,0.1,0.1,0.1,0.1,0.1c0,0,0.1,0,0.1,0c1.2-1,2.1-2.3,2.4-3.9C18.4,13.3,18.4,13.2,18.3,13.2z"/>
	<path fill="#292929" d="M12,0C5.4,0,0,5.4,0,12s5.4,12,12,12s12-5.4,12-12S18.6,0,12,0z M11.3,20c-4.4-0.4-7.6-4.3-7.2-8.7
		s4.3-7.6,8.7-7.2c3.8,0.4,6.9,3.4,7.2,7.2c0.4,4.4-2.8,8.3-7.2,8.7C12.2,20,11.8,20,11.3,20z"/>
	<path fill="#292929" d="M17.1,8.1c-1,1-2.1,1.7-3.3,2.3c-0.1,0-0.1,0.1-0.1,0.2c0,0,0,0,0,0l0.4,1c0,0.1,0.1,0.1,0.1,0.1
		c1.4-0.2,2.8-0.1,4.2,0.2c0.1,0,0.1,0,0.1-0.1c0,0,0,0,0,0C18.5,10.3,18,9.1,17.3,8C17.2,8,17.2,8,17.1,8.1C17.1,8,17.1,8,17.1,8.1
		z"/>
</g>
</svg>
