<svg xmlns="http://www.w3.org/2000/svg" xmlns:xlink="http://www.w3.org/1999/xlink" viewBox="0 0 24 24"><defs><style>.cls-1{fill:none;}.cls-2{fill:#292929;}.cls-3{clip-path:url(#clip-path);}</style><clipPath id="clip-path"><path class="cls-1" d="M-29.9-465.8a1.34,1.34,0,0,1,1.33,1.34,1.34,1.34,0,0,1-1.33,1.33,1.34,1.34,0,0,1-1.34-1.33A1.34,1.34,0,0,1-29.9-465.8Zm0-3.5a4.84,4.84,0,0,0-4.84,4.84,4.84,4.84,0,0,0,4.84,4.83h0a4.83,4.83,0,0,0,4.81-4.83v0A4.83,4.83,0,0,0-29.9-469.3Zm0-3a.5.5,0,0,1,.49.41v1.62A5.84,5.84,0,0,1-24.09-465h1.52a.5.5,0,0,1,.5.5.5.5,0,0,1-.41.49h-1.61a5.84,5.84,0,0,1-5.31,5.31v1.52a.5.5,0,0,1-.5.5.5.5,0,0,1-.49-.41v-1.61A5.82,5.82,0,0,1-35.71-464h-1.53a.51.51,0,0,1-.5-.5.5.5,0,0,1,.41-.49h1.62a5.8,5.8,0,0,1,5.31-5.31v-1.53A.5.5,0,0,1-29.9-472.3Z"/></clipPath></defs><g id="圖層_1" data-name="圖層 1"><path class="cls-2" d="M12,0A12,12,0,1,0,24,12,12,12,0,0,0,12,0Zm2.65,12.13h-1.8v6.53h-2.7V12.13H8.8V9.88h1.35V8.53c0-1.84.76-2.93,2.93-2.93h1.8V7.85H13.75c-.84,0-.9.31-.9.9V9.88h2Z"/></g></svg>