<svg xmlns="http://www.w3.org/2000/svg" xmlns:xlink="http://www.w3.org/1999/xlink" viewBox="0 0 24 24"><defs><style>.cls-1{fill:none;}.cls-2{fill:#292929;}.cls-3{clip-path:url(#clip-path);}</style><clipPath id="clip-path"><path class="cls-1" d="M103.72-429.8a1.34,1.34,0,0,1,1.34,1.34,1.34,1.34,0,0,1-1.34,1.33,1.34,1.34,0,0,1-1.33-1.33A1.34,1.34,0,0,1,103.72-429.8Zm0-3.5a4.84,4.84,0,0,0-4.83,4.84,4.83,4.83,0,0,0,4.83,4.83h0a4.83,4.83,0,0,0,4.81-4.83v0A4.84,4.84,0,0,0,103.72-433.3Zm0-3a.5.5,0,0,1,.49.41v1.62a5.82,5.82,0,0,1,5.31,5.31h1.52a.5.5,0,0,1,.5.5.49.49,0,0,1-.41.49h-1.61a5.83,5.83,0,0,1-5.31,5.31v1.52a.5.5,0,0,1-.5.5.5.5,0,0,1-.49-.41v-1.61A5.84,5.84,0,0,1,97.91-428H96.39a.5.5,0,0,1-.5-.5.5.5,0,0,1,.41-.49h1.61a5.82,5.82,0,0,1,5.31-5.31v-1.53A.51.51,0,0,1,103.72-436.3Z"/></clipPath></defs><g id="圖層_1" data-name="圖層 1"><path class="cls-2" d="M9.38,10.35a1.12,1.12,0,0,0-1.13,1.12v6.86a1.13,1.13,0,1,0,2.25,0V11.47A1.12,1.12,0,0,0,9.38,10.35Z"/><path class="cls-2" d="M14.62,10.35a1.12,1.12,0,0,0-1.12,1.12v6.86a1.13,1.13,0,1,0,2.25,0V11.47A1.12,1.12,0,0,0,14.62,10.35Z"/><path class="cls-2" d="M19.31,3.53H15.79a3.85,3.85,0,0,0-7.58,0H4.69A2.48,2.48,0,0,0,2.22,6v.49A2.47,2.47,0,0,0,3.58,8.68l.78,10.94a4.41,4.41,0,0,0,4.33,4h6.62a4.34,4.34,0,0,0,4.32-4l.79-10.94a2.47,2.47,0,0,0,1.36-2.19V6A2.48,2.48,0,0,0,19.31,3.53ZM12,2.59a1.58,1.58,0,0,1,1.43.94H10.55A1.6,1.6,0,0,1,12,2.59ZM4.47,6a.22.22,0,0,1,.22-.22H19.31a.23.23,0,0,1,.22.22v.49a.24.24,0,0,1-.22.22H4.69a.24.24,0,0,1-.22-.22ZM15.31,21.41H8.69a2.14,2.14,0,0,1-2.08-1.95L5.86,9H18.14l-.75,10.5A2.13,2.13,0,0,1,15.31,21.41Z"/></g></svg>