<svg xmlns="http://www.w3.org/2000/svg" xmlns:xlink="http://www.w3.org/1999/xlink" viewBox="0 0 24 24"><defs><style>.cls-1{fill:none;}.cls-2{fill:#292929;}.cls-3{clip-path:url(#clip-path);}</style><clipPath id="clip-path"><path class="cls-1" d="M-29.57-394.8a1.33,1.33,0,0,1,1.33,1.34,1.33,1.33,0,0,1-1.33,1.33,1.33,1.33,0,0,1-1.33-1.33A1.33,1.33,0,0,1-29.57-394.8Zm0-3.5a4.84,4.84,0,0,0-4.83,4.84,4.83,4.83,0,0,0,4.83,4.83h0a4.83,4.83,0,0,0,4.8-4.83v0A4.83,4.83,0,0,0-29.57-398.3Zm0-3a.5.5,0,0,1,.49.41v1.62A5.84,5.84,0,0,1-23.76-394h1.52a.5.5,0,0,1,.5.5.5.5,0,0,1-.41.49h-1.61a5.84,5.84,0,0,1-5.31,5.31v1.52a.5.5,0,0,1-.5.5.5.5,0,0,1-.49-.41v-1.61A5.84,5.84,0,0,1-35.38-393H-36.9a.5.5,0,0,1-.5-.5.49.49,0,0,1,.41-.49h1.61a5.82,5.82,0,0,1,5.31-5.31v-1.53A.5.5,0,0,1-29.57-401.3Z"/></clipPath></defs><g id="圖層_1" data-name="圖層 1"><path class="cls-2" d="M18.42.18H13C10.27.18,8.05,2.12,8.05,4.5v2H5A4.34,4.34,0,0,0,.63,10.79v11.9a.77.77,0,0,0,0,.15,1,1,0,0,0,1,1H17.5a1,1,0,0,0,1-.93c0-.05,0-.15,0-.2V10.79a4.33,4.33,0,0,0-4.33-4.32H10.13v-2c0-1.21,1.31-2.24,2.87-2.24h5.42c1.55,0,2.86,1,2.86,2.24V22.74a1,1,0,0,0,2.09,0V4.5C23.37,2.12,21.15.18,18.42.18Zm-2,10.61v11H10.41V18.19a.42.42,0,0,0-.42-.42H8.71a.42.42,0,0,0-.41.42v3.55H2.72V10.79A2.25,2.25,0,0,1,5,8.55h9.25A2.25,2.25,0,0,1,16.47,10.79Z"/><rect class="cls-2" x="4.7" y="10.39" width="2.11" height="2.1" rx="0.41"/><rect class="cls-2" x="8.36" y="10.39" width="2.11" height="2.1" rx="0.41"/><rect class="cls-2" x="12.13" y="10.39" width="2.11" height="2.1" rx="0.41"/><rect class="cls-2" x="4.64" y="14.1" width="2.11" height="2.1" rx="0.41"/><rect class="cls-2" x="8.3" y="14.1" width="2.11" height="2.1" rx="0.41"/><rect class="cls-2" x="12.08" y="14.1" width="2.11" height="2.1" rx="0.41"/><rect class="cls-2" x="4.64" y="17.77" width="2.11" height="2.1" rx="0.41"/><rect class="cls-2" x="12.08" y="17.77" width="2.11" height="2.1" rx="0.41"/></g></svg>