<svg xmlns="http://www.w3.org/2000/svg" xmlns:xlink="http://www.w3.org/1999/xlink" viewBox="0 0 24 24"><defs><style>.cls-1{fill:none;}.cls-2{fill:#292929;}.cls-3{clip-path:url(#clip-path);}</style><clipPath id="clip-path"><path class="cls-1" d="M-427-540.13a1.33,1.33,0,0,1,1.34,1.33,1.33,1.33,0,0,1-1.34,1.33,1.33,1.33,0,0,1-1.33-1.33A1.33,1.33,0,0,1-427-540.13Zm0-3.5a4.83,4.83,0,0,0-4.83,4.83A4.83,4.83,0,0,0-427-534h0a4.83,4.83,0,0,0,4.81-4.83v0A4.84,4.84,0,0,0-427-543.63Zm0-3a.5.5,0,0,1,.5.41v1.61a5.84,5.84,0,0,1,5.32,5.31h1.51a.5.5,0,0,1,.5.5.49.49,0,0,1-.41.49h-1.6a5.84,5.84,0,0,1-5.32,5.31v1.52a.5.5,0,0,1-.5.5.49.49,0,0,1-.49-.41V-533a5.84,5.84,0,0,1-5.31-5.31h-1.52a.5.5,0,0,1-.5-.5.5.5,0,0,1,.41-.49h1.61a5.84,5.84,0,0,1,5.31-5.31v-1.52A.5.5,0,0,1-427-546.63Z"/></clipPath></defs><g id="圖層_2" data-name="圖層 2"><path class="cls-2" d="M18.78.63H11.31A3.71,3.71,0,0,0,7.46,4.18V5H5.25A3.71,3.71,0,0,0,1.4,8.51V19.82a3.72,3.72,0,0,0,3.85,3.55h7.47a3.71,3.71,0,0,0,3.85-3.55V19h2.21a3.71,3.71,0,0,0,3.85-3.55V4.18A3.71,3.71,0,0,0,18.78.63Zm1.6,14.86a1.47,1.47,0,0,1-1.6,1.3H16.57V14.16a1.13,1.13,0,0,0-2.25,0v5.66a1.47,1.47,0,0,1-1.6,1.3H5.25a1.47,1.47,0,0,1-1.6-1.3V8.51a1.47,1.47,0,0,1,1.6-1.3h7.47a1.47,1.47,0,0,1,1.6,1.3v1.78a1.13,1.13,0,1,0,2.25,0V8.51A3.71,3.71,0,0,0,12.72,5h-3V4.18a1.47,1.47,0,0,1,1.6-1.3h7.47a1.47,1.47,0,0,1,1.6,1.3Z"/></g></svg>