<svg xmlns="http://www.w3.org/2000/svg" xmlns:xlink="http://www.w3.org/1999/xlink" viewBox="0 0 24 24"><defs><style>.cls-1{fill:none;}.cls-2{fill:#292929;}.cls-3{clip-path:url(#clip-path);}</style><clipPath id="clip-path"><path class="cls-1" d="M-98.24-429.8a1.34,1.34,0,0,1,1.34,1.34,1.34,1.34,0,0,1-1.34,1.33,1.34,1.34,0,0,1-1.33-1.33A1.34,1.34,0,0,1-98.24-429.8Zm0-3.5a4.84,4.84,0,0,0-4.83,4.84,4.83,4.83,0,0,0,4.83,4.83h0a4.83,4.83,0,0,0,4.81-4.83v0A4.84,4.84,0,0,0-98.24-433.3Zm0-3a.51.51,0,0,1,.5.41v1.62A5.84,5.84,0,0,1-92.42-429h1.51a.5.5,0,0,1,.5.5.49.49,0,0,1-.41.49h-1.6a5.84,5.84,0,0,1-5.32,5.31v1.52a.5.5,0,0,1-.5.5.5.5,0,0,1-.49-.41v-1.61A5.84,5.84,0,0,1-104-428h-1.52a.5.5,0,0,1-.5-.5.5.5,0,0,1,.41-.49H-104a5.82,5.82,0,0,1,5.31-5.31v-1.53A.51.51,0,0,1-98.24-436.3Z"/></clipPath></defs><g id="圖層_1" data-name="圖層 1"><path class="cls-2" d="M13.66,12l7-7A1.15,1.15,0,0,0,21,4.17a1.16,1.16,0,0,0-.34-.83,1.19,1.19,0,0,0-1.66,0l-7,7-7-7a1.19,1.19,0,0,0-1.66,0A1.16,1.16,0,0,0,3,4.17,1.15,1.15,0,0,0,3.34,5l7,7-7,7a1.15,1.15,0,0,0-.34.83,1.16,1.16,0,0,0,.34.83,1.19,1.19,0,0,0,1.66,0l7-7,7,7a1.15,1.15,0,0,0,.83.34A1.16,1.16,0,0,0,21,19.83a1.15,1.15,0,0,0-.34-.83Z"/></g></svg>