<?xml version="1.0" encoding="utf-8"?>
<!-- Generator: Adobe Illustrator 25.2.3, SVG Export Plug-In . SVG Version: 6.00 Build 0)  -->
<svg version="1.1" baseProfile="tiny" id="圖層_1"
	 xmlns="http://www.w3.org/2000/svg" xmlns:xlink="http://www.w3.org/1999/xlink" x="0px" y="0px" viewBox="0 0 24 24"
	 overflow="visible" xml:space="preserve">
<g>
	<g>
		<g>
			<g>
				<g>
					<path fill-rule="evenodd" fill="#292929" d="M20,1.5c1.9,0,3.5,1.6,3.5,3.5v10c0,1.9-1.6,3.5-3.5,3.5h-7.2v2.2H20
						c0.4,0,0.8,0.3,0.8,0.8c0,0.4-0.3,0.7-0.6,0.7h-0.1H4c-0.4,0-0.8-0.3-0.8-0.8c0-0.4,0.3-0.7,0.6-0.7h0.1h7.2v-2.2H4
						c-1.9,0-3.4-1.5-3.5-3.3V15V5c0-1.9,1.6-3.5,3.5-3.5H20z M20,3H4C2.9,3,2,3.9,2,5v10c0,1.1,0.9,2,2,2h16c1.1,0,2-0.9,2-2V5
						C22,3.9,21.1,3,20,3z"/>
				</g>
			</g>
		</g>
	</g>
</g>
</svg>
