<svg xmlns="http://www.w3.org/2000/svg" xmlns:xlink="http://www.w3.org/1999/xlink" viewBox="0 0 24 24"><defs><style>.cls-1{fill:none;}.cls-2{fill:#292929;}.cls-3{clip-path:url(#clip-path);}</style><clipPath id="clip-path"><path class="cls-1" d="M-361.15-540.13a1.33,1.33,0,0,1,1.33,1.33,1.33,1.33,0,0,1-1.33,1.33,1.33,1.33,0,0,1-1.34-1.33A1.33,1.33,0,0,1-361.15-540.13Zm0-3.5A4.84,4.84,0,0,0-366-538.8a4.84,4.84,0,0,0,4.84,4.83h0a4.83,4.83,0,0,0,4.81-4.83v0A4.83,4.83,0,0,0-361.15-543.63Zm0-3a.49.49,0,0,1,.49.41v1.61a5.84,5.84,0,0,1,5.31,5.31h1.52a.5.5,0,0,1,.5.5.5.5,0,0,1-.41.49h-1.61a5.84,5.84,0,0,1-5.31,5.31v1.52a.5.5,0,0,1-.5.5.49.49,0,0,1-.49-.41V-533A5.82,5.82,0,0,1-367-538.3h-1.53a.5.5,0,0,1-.5-.5.5.5,0,0,1,.41-.49H-367a5.82,5.82,0,0,1,5.31-5.31v-1.52A.5.5,0,0,1-361.15-546.63Z"/></clipPath></defs><g id="圖層_2" data-name="圖層 2"><path class="cls-2" d="M20.59.37H3.41a3.07,3.07,0,0,0-3,3.09V15.28a3.07,3.07,0,0,0,3,3.09h7.47v3H8a1.13,1.13,0,1,0,0,2.25H16a1.13,1.13,0,1,0,0-2.25H13.12v-3h2.16a1.13,1.13,0,1,0,0-2.25H3.41a.82.82,0,0,1-.79-.84V3.46a.82.82,0,0,1,.79-.84H20.59a.82.82,0,0,1,.79.84V15.28a.82.82,0,0,1-.79.84H18.91a1.13,1.13,0,1,0,0,2.25h1.68a3.07,3.07,0,0,0,3-3.09V3.46A3.07,3.07,0,0,0,20.59.37Z"/></g></svg>