<svg xmlns="http://www.w3.org/2000/svg" xmlns:xlink="http://www.w3.org/1999/xlink" viewBox="0 0 24 24"><defs><style>.cls-1{fill:none;}.cls-2{fill:#292929;}.cls-3{clip-path:url(#clip-path);}</style><clipPath id="clip-path"><path class="cls-1" d="M175.68-540.13A1.32,1.32,0,0,1,177-538.8a1.32,1.32,0,0,1-1.33,1.33,1.32,1.32,0,0,1-1.33-1.33A1.32,1.32,0,0,1,175.68-540.13Zm0-3.5a4.83,4.83,0,0,0-4.83,4.83,4.83,4.83,0,0,0,4.83,4.83h0a4.83,4.83,0,0,0,4.8-4.83v0A4.83,4.83,0,0,0,175.68-543.63Zm0-3a.49.49,0,0,1,.49.41v1.61a5.84,5.84,0,0,1,5.31,5.31H183a.5.5,0,0,1,.5.5.5.5,0,0,1-.41.49h-1.61a5.84,5.84,0,0,1-5.31,5.31v1.52a.5.5,0,0,1-.5.5.49.49,0,0,1-.49-.41V-533a5.84,5.84,0,0,1-5.31-5.31h-1.52a.5.5,0,0,1-.5-.5.49.49,0,0,1,.41-.49h1.61a5.84,5.84,0,0,1,5.31-5.31v-1.52A.5.5,0,0,1,175.68-546.63Z"/></clipPath></defs><g id="圖層_1" data-name="圖層 1"><circle class="cls-2" cx="8.25" cy="3.04" r="2.25"/><circle class="cls-2" cx="8.25" cy="12.04" r="2.25"/><circle class="cls-2" cx="8.25" cy="21.04" r="2.25"/><circle class="cls-2" cx="15.75" cy="3.04" r="2.25"/><circle class="cls-2" cx="15.75" cy="12.04" r="2.25"/><circle class="cls-2" cx="15.75" cy="21.04" r="2.25"/></g></svg>