<svg xmlns="http://www.w3.org/2000/svg" xmlns:xlink="http://www.w3.org/1999/xlink" viewBox="0 0 24 24"><defs><style>.cls-1{fill:none;}.cls-2{fill:#292929;}.cls-3{clip-path:url(#clip-path);}</style><clipPath id="clip-path"><path class="cls-1" d="M37.43-540.13a1.32,1.32,0,0,1,1.33,1.33,1.32,1.32,0,0,1-1.33,1.33,1.32,1.32,0,0,1-1.33-1.33A1.32,1.32,0,0,1,37.43-540.13Zm0-3.5a4.83,4.83,0,0,0-4.83,4.83A4.83,4.83,0,0,0,37.43-534h0a4.83,4.83,0,0,0,4.8-4.83v0A4.83,4.83,0,0,0,37.43-543.63Zm0-3a.49.49,0,0,1,.49.41v1.61a5.84,5.84,0,0,1,5.31,5.31h1.52a.5.5,0,0,1,.5.5.5.5,0,0,1-.41.49H43.24A5.84,5.84,0,0,1,37.93-533v1.52a.5.5,0,0,1-.5.5.49.49,0,0,1-.49-.41V-533a5.84,5.84,0,0,1-5.31-5.31H30.1a.5.5,0,0,1-.5-.5.49.49,0,0,1,.41-.49h1.61a5.84,5.84,0,0,1,5.31-5.31v-1.52A.5.5,0,0,1,37.43-546.63Z"/></clipPath></defs><g id="圖層_2" data-name="圖層 2"><path class="cls-2" d="M22.63,21.14H14a6.13,6.13,0,0,0,.94-3.35c.36-.51,1.22-1.7,2.26-3.22a1.12,1.12,0,1,0-1.85-1.28L14.18,15a5.59,5.59,0,0,0-1-1.42,6.46,6.46,0,0,0-1.89-1.29l-.11,0C15.58,7.08,20,2.9,21.62,2.31l-.07.25a17.78,17.78,0,0,1-1.47,3.21l-.44.78c-.57,1-1.21,2-1.87,3.07a1.13,1.13,0,0,0,1.9,1.21C20.34,9.77,21,8.7,21.6,7.67l.45-.82a19.48,19.48,0,0,0,1.66-3.66c.54-1.82-.07-2.6-.68-2.93-2.7-1.45-9.26,5.33-14.38,11.4a6.29,6.29,0,0,0-2.6.57,5.19,5.19,0,0,0-2.61,2.48A13.68,13.68,0,0,0,2.66,17,3.6,3.6,0,0,1,2,18.55a3.64,3.64,0,0,1-1.07.88,1.27,1.27,0,0,0-.78.94,1.35,1.35,0,0,0,.37,1.22c1.4,1.39,4.41,2.35,7.23,2.35l.72,0a9.7,9.7,0,0,0,2.73-.58,1.25,1.25,0,0,0,.29.05H22.63a1.13,1.13,0,0,0,0-2.25Zm-14.34.53a10.73,10.73,0,0,1-5.25-1,4.22,4.22,0,0,0,.71-.76,5.56,5.56,0,0,0,1.09-2.33,11.69,11.69,0,0,1,.66-2A3.06,3.06,0,0,1,7,14.28a3.91,3.91,0,0,1,3.33,0,4.18,4.18,0,0,1,1.25.85,3.88,3.88,0,0,1,.39,5A5,5,0,0,1,8.29,21.67Z"/></g></svg>