<svg xmlns="http://www.w3.org/2000/svg" xmlns:xlink="http://www.w3.org/1999/xlink" viewBox="0 0 24 24"><defs><style>.cls-1{fill:none;}.cls-2{fill:#292929;}.cls-3{clip-path:url(#clip-path);}</style><clipPath id="clip-path"><path class="cls-1" d="M139.06-465.8a1.34,1.34,0,0,1,1.33,1.34,1.34,1.34,0,0,1-1.33,1.33,1.34,1.34,0,0,1-1.34-1.33A1.34,1.34,0,0,1,139.06-465.8Zm0-3.5a4.84,4.84,0,0,0-4.84,4.84,4.84,4.84,0,0,0,4.84,4.83h0a4.83,4.83,0,0,0,4.81-4.83v0A4.84,4.84,0,0,0,139.06-469.3Zm0-3a.5.5,0,0,1,.49.41v1.62a5.84,5.84,0,0,1,5.31,5.31h1.52a.5.5,0,0,1,.5.5.5.5,0,0,1-.41.49h-1.61a5.84,5.84,0,0,1-5.31,5.31v1.52a.5.5,0,0,1-.5.5.51.51,0,0,1-.5-.41v-1.61a5.84,5.84,0,0,1-5.32-5.31h-1.52a.51.51,0,0,1-.5-.5.5.5,0,0,1,.41-.49h1.61a5.82,5.82,0,0,1,5.32-5.31v-1.53A.5.5,0,0,1,139.06-472.3Z"/></clipPath></defs><g id="圖層_1" data-name="圖層 1"><path class="cls-2" d="M7.85,6,4,2.25h2.2A1.12,1.12,0,0,0,7.28,1.12,1.12,1.12,0,0,0,6.16,0h-5A1.12,1.12,0,0,0,0,1.12V6A1.12,1.12,0,0,0,1.12,7.12,1.12,1.12,0,0,0,2.25,6V3.72L6.3,7.61a1.17,1.17,0,0,0,.78.31A1.13,1.13,0,0,0,7.85,6Z"/><path class="cls-2" d="M7.89,16.43a1.11,1.11,0,0,0-1.59,0l-4,3.88V18a1.12,1.12,0,0,0-1.13-1.12A1.12,1.12,0,0,0,0,18v4.87A1.12,1.12,0,0,0,1.12,24h5a1.13,1.13,0,0,0,0-2.25H4L7.85,18A1.12,1.12,0,0,0,7.89,16.43Z"/><path class="cls-2" d="M22.88,0h-5a1.12,1.12,0,0,0-1.12,1.12,1.12,1.12,0,0,0,1.12,1.13H20L16.14,6a1.13,1.13,0,0,0,.78,1.94,1.17,1.17,0,0,0,.78-.31l4.05-3.88V6A1.13,1.13,0,0,0,24,6V1.12A1.12,1.12,0,0,0,22.88,0Z"/><path class="cls-2" d="M22.88,16.88A1.12,1.12,0,0,0,21.75,18v2.28L17.7,16.39A1.13,1.13,0,0,0,16.14,18L20,21.75h-2.2a1.13,1.13,0,0,0,0,2.25h5A1.12,1.12,0,0,0,24,22.87V18A1.12,1.12,0,0,0,22.88,16.88Z"/></g></svg>