<svg xmlns="http://www.w3.org/2000/svg" xmlns:xlink="http://www.w3.org/1999/xlink" viewBox="0 0 24 24"><defs><style>.cls-1{fill:none;}.cls-2{fill:#292929;}.cls-3{clip-path:url(#clip-path);}</style><clipPath id="clip-path"><path class="cls-1" d="M70.93-394.8a1.33,1.33,0,0,1,1.33,1.34,1.33,1.33,0,0,1-1.33,1.33,1.33,1.33,0,0,1-1.33-1.33A1.33,1.33,0,0,1,70.93-394.8Zm0-3.5a4.84,4.84,0,0,0-4.83,4.84,4.83,4.83,0,0,0,4.83,4.83h0a4.83,4.83,0,0,0,4.8-4.83v0A4.83,4.83,0,0,0,70.93-398.3Zm0-3a.5.5,0,0,1,.49.41v1.62A5.84,5.84,0,0,1,76.74-394h1.52a.5.5,0,0,1,.5.5.5.5,0,0,1-.41.49H76.74a5.84,5.84,0,0,1-5.31,5.31v1.52a.5.5,0,0,1-.5.5.5.5,0,0,1-.49-.41v-1.61A5.84,5.84,0,0,1,65.12-393H63.6a.5.5,0,0,1-.5-.5.49.49,0,0,1,.41-.49h1.61a5.82,5.82,0,0,1,5.31-5.31v-1.53A.5.5,0,0,1,70.93-401.3Z"/></clipPath></defs><g id="圖層_1" data-name="圖層 1"><g id="Page-1"><g id="icon24_icon_eye" data-name="icon24/icon_eye"><g id="icon_eye" data-name="icon eye"><g id="Shape"><path class="cls-2" d="M12,20.86A12.1,12.1,0,0,1,.26,13.13l0-.12-.09-.23A2.47,2.47,0,0,1,0,12a3,3,0,0,1,.13-.8c0-.13.07-.2.13-.35A12.1,12.1,0,0,1,12,3.14a12.09,12.09,0,0,1,11.76,7.73A3.61,3.61,0,0,1,24,12a3.35,3.35,0,0,1-.21,1.13A12.09,12.09,0,0,1,12,20.86ZM12,5.11a10.19,10.19,0,0,0-9.94,6.5A.89.89,0,0,0,2,11.8,1,1,0,0,0,2,12a1,1,0,0,0,0,.17l.08.2A10.19,10.19,0,0,0,12,18.89,10.21,10.21,0,0,0,22,12.39,1.68,1.68,0,0,0,22,12a2.63,2.63,0,0,0-.07-.42A10.2,10.2,0,0,0,12,5.11Z"/></g><g id="Combined-Shape"><path class="cls-2" d="M15.28,8.44a1.57,1.57,0,0,0,0,3.13,1.58,1.58,0,0,0,1.34-.75,5.19,5.19,0,0,1,.14,1.2A4.84,4.84,0,1,1,12,7.08,4.76,4.76,0,0,1,15.28,8.44Z"/></g></g></g></g></g></svg>