<svg xmlns="http://www.w3.org/2000/svg" xmlns:xlink="http://www.w3.org/1999/xlink" viewBox="0 0 24 24"><defs><style>.cls-1{fill:none;}.cls-2{fill:#292929;}.cls-3{clip-path:url(#clip-path);}</style><clipPath id="clip-path"><path class="cls-1" d="M103.72-540.13a1.33,1.33,0,0,1,1.34,1.33,1.33,1.33,0,0,1-1.34,1.33,1.33,1.33,0,0,1-1.33-1.33A1.33,1.33,0,0,1,103.72-540.13Zm0-3.5a4.83,4.83,0,0,0-4.83,4.83,4.83,4.83,0,0,0,4.83,4.83h0a4.83,4.83,0,0,0,4.81-4.83v0A4.84,4.84,0,0,0,103.72-543.63Zm0-3a.49.49,0,0,1,.49.41v1.61a5.82,5.82,0,0,1,5.31,5.31h1.52a.5.5,0,0,1,.5.5.49.49,0,0,1-.41.49h-1.61a5.83,5.83,0,0,1-5.31,5.31v1.52a.5.5,0,0,1-.5.5.49.49,0,0,1-.49-.41V-533a5.84,5.84,0,0,1-5.31-5.31H96.39a.5.5,0,0,1-.5-.5.5.5,0,0,1,.41-.49h1.61a5.84,5.84,0,0,1,5.31-5.31v-1.52A.5.5,0,0,1,103.72-546.63Z"/></clipPath></defs><g id="圖層_1" data-name="圖層 1"><path class="cls-2" d="M22.06,13.65a1.13,1.13,0,0,0,1.13-1.13V8.91a4,4,0,0,0-4-4H13a1.06,1.06,0,0,1-.78-.36l-.78-.91a3.29,3.29,0,0,0-2.66-1.4H4.92a3.29,3.29,0,0,0-3,2L1.23,6A6.31,6.31,0,0,0,.81,8.32v9.45a4,4,0,0,0,4,4H19.21a4,4,0,0,0,4-4V17a1.13,1.13,0,1,0-2.25,0v.79a1.72,1.72,0,0,1-1.73,1.72H4.79a1.72,1.72,0,0,1-1.73-1.72V8.32a4.08,4.08,0,0,1,.27-1.47L4,5.1a1,1,0,0,1,.92-.59H8.75A1.12,1.12,0,0,1,9.64,5l.85,1A3.26,3.26,0,0,0,13,7.19h6.23a1.72,1.72,0,0,1,1.73,1.72v3.61A1.13,1.13,0,0,0,22.06,13.65Z"/><path class="cls-2" d="M5.12,9.34a1.13,1.13,0,1,0,0,2.25H18.85a1.13,1.13,0,1,0,0-2.25Z"/></g></svg>