<svg xmlns="http://www.w3.org/2000/svg" xmlns:xlink="http://www.w3.org/1999/xlink" viewBox="0 0 24 24"><defs><style>.cls-1{fill:none;}.cls-2{fill:#292929;}.cls-3{clip-path:url(#clip-path);}</style><clipPath id="clip-path"><path class="cls-1" d="M-134.15-540.13a1.33,1.33,0,0,1,1.33,1.33,1.33,1.33,0,0,1-1.33,1.33,1.33,1.33,0,0,1-1.34-1.33A1.33,1.33,0,0,1-134.15-540.13Zm0-3.5A4.84,4.84,0,0,0-139-538.8a4.84,4.84,0,0,0,4.84,4.83h0a4.83,4.83,0,0,0,4.81-4.83v0A4.83,4.83,0,0,0-134.15-543.63Zm0-3a.49.49,0,0,1,.49.41v1.61a5.84,5.84,0,0,1,5.31,5.31h1.52a.5.5,0,0,1,.5.5.5.5,0,0,1-.41.49h-1.61a5.84,5.84,0,0,1-5.31,5.31v1.52a.5.5,0,0,1-.5.5.49.49,0,0,1-.49-.41V-533A5.82,5.82,0,0,1-140-538.3h-1.53a.5.5,0,0,1-.5-.5.5.5,0,0,1,.41-.49H-140a5.82,5.82,0,0,1,5.31-5.31v-1.52A.5.5,0,0,1-134.15-546.63Z"/></clipPath></defs><g id="圖層_1" data-name="圖層 1"><path class="cls-2" d="M20.5,6.24H13.38l2.91-2.9.52,1a1,1,0,0,0,1.79-.9l-.85-1.67A1.47,1.47,0,0,0,16.7,1a1.54,1.54,0,0,0-1.31.39L12,4.85,8.46,1.37a1.5,1.5,0,0,0-2.32.45L3.91,6.24H3.5A2.49,2.49,0,0,0,1,8.72v1.1a2.48,2.48,0,0,0,1.86,2.39l.46,7.06a4,4,0,0,0,4,3.73h9.38a4,4,0,0,0,4-3.73l.46-7.06A2.48,2.48,0,0,0,23,9.82V8.72A2.49,2.49,0,0,0,20.5,6.24ZM21,8.72v1.1a.48.48,0,0,1-.5.48H13V8.24h7.5A.49.49,0,0,1,21,8.72ZM7.61,3.34l2.91,2.9H6.15ZM3,8.72a.49.49,0,0,1,.5-.48H11V10.3H3.5A.48.48,0,0,1,3,9.82ZM5.32,19.14,4.87,12.3H11V21H7.31A2,2,0,0,1,5.32,19.14ZM16.69,21H13V12.3h6.13l-.45,6.84A2,2,0,0,1,16.69,21Z"/></g></svg>