<svg xmlns="http://www.w3.org/2000/svg" xmlns:xlink="http://www.w3.org/1999/xlink" viewBox="0 0 24 24"><defs><style>.cls-1{fill:none;}.cls-2{fill:#292929;}.cls-3{clip-path:url(#clip-path);}</style><clipPath id="clip-path"><path class="cls-1" d="M-169.82-540.13a1.32,1.32,0,0,1,1.33,1.33,1.32,1.32,0,0,1-1.33,1.33,1.32,1.32,0,0,1-1.33-1.33A1.32,1.32,0,0,1-169.82-540.13Zm0-3.5a4.83,4.83,0,0,0-4.83,4.83,4.83,4.83,0,0,0,4.83,4.83h0a4.83,4.83,0,0,0,4.8-4.83v0A4.83,4.83,0,0,0-169.82-543.63Zm0-3a.49.49,0,0,1,.49.41v1.61A5.84,5.84,0,0,1-164-539.3h1.52a.5.5,0,0,1,.5.5.5.5,0,0,1-.41.49H-164a5.84,5.84,0,0,1-5.31,5.31v1.52a.5.5,0,0,1-.5.5.49.49,0,0,1-.49-.41V-533a5.84,5.84,0,0,1-5.31-5.31h-1.52a.5.5,0,0,1-.5-.5.49.49,0,0,1,.41-.49h1.61a5.84,5.84,0,0,1,5.31-5.31v-1.52A.5.5,0,0,1-169.82-546.63Z"/></clipPath></defs><g id="圖層_1" data-name="圖層 1"><polygon class="cls-2" points="12 12 12 12 12 12 12 12"/><polygon class="cls-2" points="11.88 11.99 11.88 12.01 12.12 12.01 11.88 11.99"/><path class="cls-2" d="M7.48,1.56H7.43a.24.24,0,0,0-.18.13L5.35,5.47a.23.23,0,0,0,0,.25.24.24,0,0,0,.21.11h6.25L7.62,1.61A.2.2,0,0,0,7.48,1.56Z"/><path class="cls-2" d="M18.78,5.72a.23.23,0,0,0,0-.25l-1.9-3.78a.26.26,0,0,0-.18-.12.23.23,0,0,0-.21.05L12.32,5.83h6.25A.24.24,0,0,0,18.78,5.72Z"/><path class="cls-2" d="M4.57,19.88a2.76,2.76,0,0,0,2.74,2.56h3.94V11.94H4.09Z"/><path class="cls-2" d="M12.79,22.44h3.9a2.76,2.76,0,0,0,2.74-2.56l.48-7.94H12.79Z"/><path class="cls-2" d="M2.3,8.4V9.61a1.26,1.26,0,0,0,1.2,1.3h7.75V7.11H3.5A1.25,1.25,0,0,0,2.3,8.4Z"/><path class="cls-2" d="M20.5,7.11H12.79v3.8H20.5a1.26,1.26,0,0,0,1.2-1.3V8.4A1.25,1.25,0,0,0,20.5,7.11Z"/></g></svg>