<svg xmlns="http://www.w3.org/2000/svg" xmlns:xlink="http://www.w3.org/1999/xlink" viewBox="0 0 24 24"><defs><style>.cls-1{fill:none;}.cls-2{clip-path:url(#clip-path);}.cls-3{fill:#292929;}</style><clipPath id="clip-path"><path class="cls-1" d="M-446.43-429.8a1.34,1.34,0,0,1,1.34,1.34,1.34,1.34,0,0,1-1.34,1.33,1.34,1.34,0,0,1-1.33-1.33A1.34,1.34,0,0,1-446.43-429.8Zm0-3.5a4.84,4.84,0,0,0-4.83,4.84,4.83,4.83,0,0,0,4.83,4.83h0a4.83,4.83,0,0,0,4.81-4.83v0A4.84,4.84,0,0,0-446.43-433.3Zm0-3a.51.51,0,0,1,.5.41v1.62a5.84,5.84,0,0,1,5.31,5.31h1.51a.5.5,0,0,1,.5.5.49.49,0,0,1-.41.49h-1.6a5.84,5.84,0,0,1-5.31,5.31v1.52a.5.5,0,0,1-.5.5.51.51,0,0,1-.49-.41v-1.61a5.84,5.84,0,0,1-5.32-5.31h-1.52a.51.51,0,0,1-.5-.5.5.5,0,0,1,.41-.49h1.61a5.82,5.82,0,0,1,5.32-5.31v-1.53A.51.51,0,0,1-446.43-436.3Z"/></clipPath></defs><g id="圖層_2" data-name="圖層 2"><path class="cls-3" d="M2.7,2.74H21.35a1.13,1.13,0,0,0,0-2.25H2.7a1.13,1.13,0,0,0,0,2.25Z"/><path class="cls-3" d="M13.93,6.47a2.83,2.83,0,0,0-4,0l-8,8A1.12,1.12,0,0,0,3.45,16.1l7.39-7.39V22.39a1.13,1.13,0,0,0,2.25,0V8.81l7.29,7.3.1.09a1.12,1.12,0,0,0,1.59,0,1.13,1.13,0,0,0,0-1.6Z"/></g></svg>