<?xml version="1.0" encoding="utf-8"?>
<!-- Generator: Adobe Illustrator 25.2.3, SVG Export Plug-In . SVG Version: 6.00 Build 0)  -->
<svg version="1.1" baseProfile="tiny" id="圖層_1"
	 xmlns="http://www.w3.org/2000/svg" xmlns:xlink="http://www.w3.org/1999/xlink" x="0px" y="0px" viewBox="0 0 24 24"
	 overflow="visible" xml:space="preserve">
<g>
	<g>
		<g>
			<g>
				<path fill="#292929" d="M12,22.3c-0.4,0-0.9-0.1-1.3-0.4l-5.3-4.4l-0.1-0.1l-0.6-0.6l0,0l-1-1c-1.4-1.5-3-3.7-3-7.2
					c0-4.3,2.5-7,6.3-7c2.1,0,3.7,0.9,4.9,2.6c1.2-1.7,2.9-2.6,4.9-2.6c3.8,0,6.3,2.8,6.3,7c0,3.5-1.6,5.6-3,7.2L18,18l-3.6,3
					l-1.1,0.9C12.9,22.2,12.4,22.3,12,22.3z M5.8,15.8l1.7,1.5l4.2,3.4c0.2,0.2,0.5,0.2,0.7,0l5.5-4.6l1.3-1.3
					c1.3-1.4,2.6-3.2,2.6-6.1c0-3.4-1.8-5.5-4.8-5.5c-1.9,0-3.3,1-4.3,2.9c-0.1,0.3-0.4,0.4-0.7,0.4s-0.5-0.2-0.7-0.4l-0.1-0.3
					c-1-1.8-2.3-2.7-4.1-2.7c-3,0-4.8,2.1-4.8,5.5c0,2.9,1.3,4.7,2.6,6.1L5.8,15.8z"/>
			</g>
		</g>
	</g>
</g>
</svg>
