<svg xmlns="http://www.w3.org/2000/svg" xmlns:xlink="http://www.w3.org/1999/xlink" viewBox="0 0 24 24"><defs><style>.cls-1{fill:none;}.cls-2{clip-path:url(#clip-path);}.cls-3{fill:#292929;}</style><clipPath id="clip-path"><path class="cls-1" d="M-134.15-394.8a1.34,1.34,0,0,1,1.33,1.34,1.34,1.34,0,0,1-1.33,1.33,1.34,1.34,0,0,1-1.34-1.33A1.34,1.34,0,0,1-134.15-394.8Zm0-3.5a4.84,4.84,0,0,0-4.84,4.84,4.84,4.84,0,0,0,4.84,4.83h0a4.83,4.83,0,0,0,4.81-4.83v0A4.83,4.83,0,0,0-134.15-398.3Zm0-3a.5.5,0,0,1,.49.41v1.62a5.84,5.84,0,0,1,5.31,5.31h1.52a.5.5,0,0,1,.5.5.5.5,0,0,1-.41.49h-1.61a5.84,5.84,0,0,1-5.31,5.31v1.52a.5.5,0,0,1-.5.5.5.5,0,0,1-.49-.41v-1.61A5.82,5.82,0,0,1-140-393h-1.53a.51.51,0,0,1-.5-.5.5.5,0,0,1,.41-.49H-140a5.8,5.8,0,0,1,5.31-5.31v-1.53A.5.5,0,0,1-134.15-401.3Z"/></clipPath></defs><g id="圖層_2" data-name="圖層 2"><path class="cls-3" d="M23,8.37A10.39,10.39,0,0,0,3,13.72L1.37,13a.9.9,0,1,0-.74,1.64L4,16.13H4l.06,0a.94.94,0,0,0,.29.06h0a1.07,1.07,0,0,0,.25,0l0,0h0l0,0a.67.67,0,0,0,.12-.06l0,0,0,0L5,15.94l0,0a.25.25,0,0,0,0-.07.4.4,0,0,0,.1-.15l1.55-3.32a.91.91,0,0,0-.44-1.2.9.9,0,0,0-1.19.44l-.42.89a8.6,8.6,0,1,1,3,6A.9.9,0,0,0,6.5,19.91,10.4,10.4,0,0,0,23,8.37Z"/><path class="cls-3" d="M13.25,6a.9.9,0,0,0-.9.9V12s0,0,0,0a1.13,1.13,0,0,0,0,.18s0,.11,0,.16a.6.6,0,0,0,.09.13,1.58,1.58,0,0,0,.12.15l0,0,3.05,2.53a1,1,0,0,0,.58.2.88.88,0,0,0,.69-.33.89.89,0,0,0-.12-1.26l-2.73-2.26V6.88A.9.9,0,0,0,13.25,6Z"/></g></svg>