<svg xmlns="http://www.w3.org/2000/svg" xmlns:xlink="http://www.w3.org/1999/xlink" viewBox="0 0 24 24"><defs><style>.cls-1{fill:none;}.cls-2{clip-path:url(#clip-path);}.cls-3{fill:#292929;}</style><clipPath id="clip-path"><path class="cls-1" d="M-134.46-502.11a1.33,1.33,0,0,1,1.33,1.34,1.33,1.33,0,0,1-1.33,1.33,1.33,1.33,0,0,1-1.33-1.33A1.33,1.33,0,0,1-134.46-502.11Zm0-3.5a4.84,4.84,0,0,0-4.83,4.84,4.83,4.83,0,0,0,4.83,4.83h0a4.83,4.83,0,0,0,4.8-4.83v0A4.83,4.83,0,0,0-134.46-505.61Zm0-3a.5.5,0,0,1,.49.41v1.61a5.84,5.84,0,0,1,5.31,5.32h1.52a.5.5,0,0,1,.5.5.5.5,0,0,1-.41.49h-1.61A5.84,5.84,0,0,1-134-495v1.52a.5.5,0,0,1-.5.5.5.5,0,0,1-.49-.41V-495a5.84,5.84,0,0,1-5.31-5.31h-1.52a.5.5,0,0,1-.5-.5.5.5,0,0,1,.41-.5h1.61a5.84,5.84,0,0,1,5.31-5.32v-1.52A.5.5,0,0,1-134.46-508.61Z"/></clipPath></defs><g id="圖層_2" data-name="圖層 2"><path class="cls-3" d="M22.62,10.39,12.51.93a.74.74,0,0,0-1,0L1.38,10.39a.75.75,0,0,0,.52,1.3H4v10.5a.76.76,0,0,0,.75.75h5.44V17h4v5.92h5.06a.76.76,0,0,0,.75-.75V11.69h2.1A.75.75,0,0,0,22.62,10.39Z"/></g></svg>