<svg xmlns="http://www.w3.org/2000/svg" xmlns:xlink="http://www.w3.org/1999/xlink" viewBox="0 0 24 24"><defs><style>.cls-1{fill:none;}.cls-2{fill:#292929;}.cls-3{clip-path:url(#clip-path);}</style><clipPath id="clip-path"><path class="cls-1" d="M-461.53-540.13a1.33,1.33,0,0,1,1.34,1.33,1.33,1.33,0,0,1-1.34,1.33,1.33,1.33,0,0,1-1.33-1.33A1.33,1.33,0,0,1-461.53-540.13Zm0-3.5a4.83,4.83,0,0,0-4.83,4.83,4.83,4.83,0,0,0,4.83,4.83h0a4.83,4.83,0,0,0,4.81-4.83v0A4.84,4.84,0,0,0-461.53-543.63Zm0-3a.49.49,0,0,1,.49.41v1.61a5.84,5.84,0,0,1,5.31,5.31h1.52a.5.5,0,0,1,.5.5.5.5,0,0,1-.41.49h-1.61A5.84,5.84,0,0,1-461-533v1.52a.5.5,0,0,1-.5.5.49.49,0,0,1-.49-.41V-533a5.84,5.84,0,0,1-5.31-5.31h-1.52a.5.5,0,0,1-.5-.5.5.5,0,0,1,.41-.49h1.61a5.84,5.84,0,0,1,5.31-5.31v-1.52A.5.5,0,0,1-461.53-546.63Z"/></clipPath></defs><g id="圖層_2" data-name="圖層 2"><path class="cls-2" d="M19.48,12a1,1,0,0,0-1.3.56,8,8,0,0,1-1.18,2,8.57,8.57,0,0,1-2.26,2l-.51.27A2.58,2.58,0,0,0,13,16.58H8a2.66,2.66,0,0,0-1.2.29A7.52,7.52,0,0,1,3.8,14,7.66,7.66,0,0,1,3,8.09,8.2,8.2,0,0,1,6.73,3.18a8.09,8.09,0,0,1,7.87-.3,1,1,0,1,0,.91-1.78,10,10,0,0,0-9.8.37,10.08,10.08,0,0,0-4.64,6.1A9.62,9.62,0,0,0,5.64,18.51a1.84,1.84,0,0,0,0,.33v.28a2.19,2.19,0,0,0,.9,1.77s0,0,0,.05c0,1.77,1.7,3,4,3s4-1.28,4-3c0,0,0,0,0-.05a2.19,2.19,0,0,0,.9-1.77v-.28a2,2,0,0,0,0-.35,3.84,3.84,0,0,0,.35-.18,10.24,10.24,0,0,0,4.27-5A1,1,0,0,0,19.48,12ZM7.61,18.84c0-.14.18-.26.42-.26h5c.23,0,.42.12.42.26v.28c0,.15-.19.27-.42.27H8c-.24,0-.42-.12-.42-.27ZM8.7,21.39h3.67a2.64,2.64,0,0,1-1.84.6A2.61,2.61,0,0,1,8.7,21.39Z"/><path class="cls-2" d="M23,5.21H21V3a1,1,0,0,0-2,0V5.21H17a1,1,0,0,0,0,2h2V9a1,1,0,1,0,2,0V7.21h2a1,1,0,0,0,0-2Z"/></g></svg>