<svg xmlns="http://www.w3.org/2000/svg" xmlns:xlink="http://www.w3.org/1999/xlink" viewBox="0 0 24 24"><defs><style>.cls-1{fill:none;}.cls-2{fill:#292929;fill-rule:evenodd;}.cls-3{clip-path:url(#clip-path);}</style><clipPath id="clip-path"><path class="cls-1" d="M-29.57-540.13a1.32,1.32,0,0,1,1.33,1.33,1.32,1.32,0,0,1-1.33,1.33,1.32,1.32,0,0,1-1.33-1.33A1.32,1.32,0,0,1-29.57-540.13Zm0-3.5a4.83,4.83,0,0,0-4.83,4.83A4.83,4.83,0,0,0-29.57-534h0a4.83,4.83,0,0,0,4.8-4.83v0A4.83,4.83,0,0,0-29.57-543.63Zm0-3a.49.49,0,0,1,.49.41v1.61a5.84,5.84,0,0,1,5.31,5.31h1.52a.5.5,0,0,1,.5.5.5.5,0,0,1-.41.49h-1.61A5.84,5.84,0,0,1-29.07-533v1.52a.5.5,0,0,1-.5.5.49.49,0,0,1-.49-.41V-533a5.84,5.84,0,0,1-5.31-5.31H-36.9a.5.5,0,0,1-.5-.5.49.49,0,0,1,.41-.49h1.61a5.84,5.84,0,0,1,5.31-5.31v-1.52A.5.5,0,0,1-29.57-546.63Z"/></clipPath></defs><g id="圖層_1" data-name="圖層 1"><path class="cls-2" d="M19.81,1.88H4.19A4.27,4.27,0,0,0,0,6.27V17.73a4.27,4.27,0,0,0,4.15,4.39H19.81A4.27,4.27,0,0,0,24,17.73V6.27A4.27,4.27,0,0,0,19.81,1.88ZM4.19,4.12H19.81a2,2,0,0,1,1.9,2.15v9.6l-4.55-5.33a1.87,1.87,0,0,0-1.38-.75,1.93,1.93,0,0,0-1.46.56c-.66.68-1.7,1.84-2.69,3-.77.86-1.51,1.69-2,2.23l-2.44-2L7,13.46a1.86,1.86,0,0,0-2.29.3l-2.45,2.5v-10A2,2,0,0,1,4.19,4.12ZM19.81,19.88H4.19A1.87,1.87,0,0,1,2.62,19a1.06,1.06,0,0,0,.43-.26l3.05-3.1,2.45,2,.13.09a1.86,1.86,0,0,0,2.3-.3c.52-.53,1.41-1.53,2.33-2.57s1.7-1.9,2.33-2.58l5.74,6.72A1.85,1.85,0,0,1,19.81,19.88Z"/><path class="cls-2" d="M8.25,10.72A2.11,2.11,0,1,0,6.14,8.61,2.1,2.1,0,0,0,8.25,10.72Z"/></g></svg>