<svg xmlns="http://www.w3.org/2000/svg" xmlns:xlink="http://www.w3.org/1999/xlink" viewBox="0 0 24 24"><defs><style>.cls-1{fill:none;}.cls-2{fill:#292929;fill-rule:evenodd;}.cls-3{clip-path:url(#clip-path);}</style><clipPath id="clip-path"><path class="cls-1" d="M-203.11-429.8a1.33,1.33,0,0,1,1.33,1.34,1.33,1.33,0,0,1-1.33,1.33,1.33,1.33,0,0,1-1.33-1.33A1.33,1.33,0,0,1-203.11-429.8Zm0-3.5a4.84,4.84,0,0,0-4.83,4.84,4.83,4.83,0,0,0,4.83,4.83h0a4.83,4.83,0,0,0,4.8-4.83v0A4.83,4.83,0,0,0-203.11-433.3Zm0-3a.5.5,0,0,1,.49.41v1.62A5.84,5.84,0,0,1-197.3-429h1.52a.5.5,0,0,1,.5.5.5.5,0,0,1-.41.49h-1.61a5.84,5.84,0,0,1-5.31,5.31v1.52a.5.5,0,0,1-.5.5.5.5,0,0,1-.49-.41v-1.61a5.84,5.84,0,0,1-5.31-5.31h-1.52a.5.5,0,0,1-.5-.5.49.49,0,0,1,.41-.49h1.61a5.82,5.82,0,0,1,5.31-5.31v-1.53A.5.5,0,0,1-203.11-436.3Z"/></clipPath></defs><g id="圖層_1" data-name="圖層 1"><path class="cls-2" d="M23,7.62a1.12,1.12,0,0,0-2.09.83,9.59,9.59,0,1,1-1.92-3,1.11,1.11,0,0,0,1.59,0,1.13,1.13,0,0,0,.05-1.59A11.81,11.81,0,1,0,23,7.62Z"/><path class="cls-2" d="M14.83,12.63c1.5-1.16,2.62-3.22,1.71-5.21a4.81,4.81,0,0,0-4.28-2.69A5.37,5.37,0,0,0,7,9.14a1.13,1.13,0,1,0,2.22.4A3.11,3.11,0,0,1,12.26,7,2.56,2.56,0,0,1,14.5,8.35c.45,1-.45,2-1.05,2.5-2.43,1.88-2.25,3.74-2.22,4a1.16,1.16,0,0,0,1.13,1h.15a1.11,1.11,0,0,0,1-1.24S13.46,13.69,14.83,12.63Z"/><path class="cls-2" d="M11.29,17.81a1.1,1.1,0,0,0,.89,1.28,1.12,1.12,0,0,0,1.28-.9,1.1,1.1,0,0,0-.9-1.27A1.09,1.09,0,0,0,11.29,17.81Z"/></g></svg>