<svg xmlns="http://www.w3.org/2000/svg" xmlns:xlink="http://www.w3.org/1999/xlink" viewBox="0 0 24 24"><defs><style>.cls-1{fill:none;}.cls-2{fill:#292929;}.cls-3{clip-path:url(#clip-path);}</style><clipPath id="clip-path"><path class="cls-1" d="M175.68-360.13A1.33,1.33,0,0,1,177-358.8a1.33,1.33,0,0,1-1.33,1.34,1.33,1.33,0,0,1-1.33-1.34A1.33,1.33,0,0,1,175.68-360.13Zm0-3.5a4.83,4.83,0,0,0-4.83,4.83,4.84,4.84,0,0,0,4.83,4.84h0a4.84,4.84,0,0,0,4.8-4.84v0A4.83,4.83,0,0,0,175.68-363.63Zm0-3a.5.5,0,0,1,.49.41v1.61a5.84,5.84,0,0,1,5.31,5.31H183a.5.5,0,0,1,.5.5.51.51,0,0,1-.41.5h-1.61a5.84,5.84,0,0,1-5.31,5.32v1.52a.5.5,0,0,1-.5.5.5.5,0,0,1-.49-.41V-353a5.84,5.84,0,0,1-5.31-5.32h-1.52a.5.5,0,0,1-.5-.5.49.49,0,0,1,.41-.49h1.61a5.84,5.84,0,0,1,5.31-5.31v-1.52A.5.5,0,0,1,175.68-366.63Z"/></clipPath></defs><g id="圖層_1" data-name="圖層 1"><path class="cls-2" d="M18,19.5V20a2,2,0,0,1-2,2H4a2,2,0,0,1-2-2V4A2,2,0,0,1,4,2H16a2,2,0,0,1,2,2v.5a7.37,7.37,0,0,1,2,.28V4a4,4,0,0,0-4-4H4A4,4,0,0,0,0,4V20a4,4,0,0,0,4,4H16a4,4,0,0,0,4-4v-.78a7.46,7.46,0,0,1-1.9.28Z"/><path class="cls-2" d="M17.92,6A6,6,0,1,0,24,11.92,6,6,0,0,0,17.92,6ZM17,15.73c-.42,0-.72-.25-.43-1.36l.47-2c.09-.32.1-.44,0-.44a3.31,3.31,0,0,0-1,.43l-.21-.34a5.56,5.56,0,0,1,2.67-1.34c.42,0,.49.5.28,1.25L18.28,14c-.09.37-.05.49,0,.49a2.15,2.15,0,0,0,.94-.46l.23.31A4.35,4.35,0,0,1,17,15.73Zm1.49-6c-.57,0-.85-.29-.83-.76a1,1,0,0,1,1.14-1,.69.69,0,0,1,.78.76A1,1,0,0,1,18.52,9.74Z"/></g></svg>