<?xml version="1.0" encoding="utf-8"?>
<!-- Generator: Adobe Illustrator 25.2.3, SVG Export Plug-In . SVG Version: 6.00 Build 0)  -->
<svg version="1.1" baseProfile="tiny" id="圖層_1"
	 xmlns="http://www.w3.org/2000/svg" xmlns:xlink="http://www.w3.org/1999/xlink" x="0px" y="0px" viewBox="0 0 24 24"
	 overflow="visible" xml:space="preserve">
<g id="圖層_2_1_">
	<path fill-rule="evenodd" fill="#292929" d="M20.6,4.6h-2.9v-1c0-1.6-1.3-2.8-2.9-2.8H9.1C7.5,0.7,6.2,2,6.2,3.6v1H3.4
		c-1.6,0-2.9,1.3-2.9,2.8v7.8c-0.2,0.5,0.1,1.1,0.7,1.2s1.1-0.1,1.2-0.7c0.1-0.2,0.1-0.4,0-0.6v-3.9h16.3c0.5-0.2,0.8-0.7,0.7-1.2
		c-0.1-0.3-0.4-0.6-0.7-0.7H2.4V7.4c0-0.6,0.4-1,1-1h2.8v1C6.4,8,6.9,8.3,7.5,8.1C7.8,8,8.1,7.8,8.2,7.4v-1h7.7v1
		C15.7,8,16,8.5,16.5,8.7c0.5,0.2,1.1-0.1,1.2-0.7c0.1-0.2,0.1-0.4,0-0.6v-1h2.9c0.6,0,1,0.4,1,1v12.5c0,0.6-0.4,1-1,1H3.4
		c-0.6,0-1-0.4-1-1c-0.2-0.5-0.7-0.8-1.2-0.7c-0.3,0.1-0.6,0.4-0.7,0.7c0,1.6,1.3,2.9,2.9,2.9c0,0,0,0,0,0h17.3
		c1.6,0,2.9-1.3,2.9-2.9v0V7.4C23.5,5.8,22.2,4.6,20.6,4.6C20.6,4.6,20.6,4.6,20.6,4.6z M8.2,4.6v-1c0-0.6,0.4-1,1-1h5.8
		c0.6,0,1,0.4,1,1v1H8.2z"/>
</g>
</svg>
