<svg xmlns="http://www.w3.org/2000/svg" xmlns:xlink="http://www.w3.org/1999/xlink" viewBox="0 0 24 24"><defs><style>.cls-1{fill:none;}.cls-2{fill:#292929;}.cls-3{clip-path:url(#clip-path);}</style><clipPath id="clip-path"><path class="cls-1" d="M-63.9-540.13a1.33,1.33,0,0,1,1.33,1.33,1.33,1.33,0,0,1-1.33,1.33,1.33,1.33,0,0,1-1.34-1.33A1.33,1.33,0,0,1-63.9-540.13Zm0-3.5a4.84,4.84,0,0,0-4.84,4.83A4.84,4.84,0,0,0-63.9-534h0a4.83,4.83,0,0,0,4.81-4.83v0A4.83,4.83,0,0,0-63.9-543.63Zm0-3a.49.49,0,0,1,.49.41v1.61a5.84,5.84,0,0,1,5.31,5.31h1.52a.5.5,0,0,1,.5.5.5.5,0,0,1-.41.49h-1.61A5.84,5.84,0,0,1-63.4-533v1.52a.5.5,0,0,1-.5.5.49.49,0,0,1-.49-.41V-533a5.82,5.82,0,0,1-5.31-5.31h-1.53a.5.5,0,0,1-.5-.5.5.5,0,0,1,.41-.49h1.62a5.82,5.82,0,0,1,5.31-5.31v-1.52A.5.5,0,0,1-63.9-546.63Z"/></clipPath></defs><g id="圖層_1" data-name="圖層 1"><path class="cls-2" d="M19.81,1.88H4.19A4.27,4.27,0,0,0,0,6.27V17.73a4.27,4.27,0,0,0,4.15,4.39H19.81A4.27,4.27,0,0,0,24,17.73V6.27A4.27,4.27,0,0,0,19.81,1.88ZM4.19,4.12H19.81a2,2,0,0,1,1.9,2.15V9.15H2.29V6.27A2,2,0,0,1,4.19,4.12ZM2.29,17.73V11.4H7.55v8.48H4.19A2,2,0,0,1,2.29,17.73Zm17.52,2.15H9.8V11.4H21.71v6.33A2,2,0,0,1,19.81,19.88Z"/></g></svg>