<svg xmlns="http://www.w3.org/2000/svg" xmlns:xlink="http://www.w3.org/1999/xlink" viewBox="0 0 24 24"><defs><style>.cls-1{fill:none;}.cls-2{fill:#292929;}.cls-3{clip-path:url(#clip-path);}</style><clipPath id="clip-path"><path class="cls-1" d="M105.18-394.8a1.33,1.33,0,0,1,1.33,1.34,1.33,1.33,0,0,1-1.33,1.33,1.33,1.33,0,0,1-1.33-1.33A1.33,1.33,0,0,1,105.18-394.8Zm0-3.5a4.84,4.84,0,0,0-4.83,4.84,4.83,4.83,0,0,0,4.83,4.83h0a4.83,4.83,0,0,0,4.8-4.83v0A4.83,4.83,0,0,0,105.18-398.3Zm0-3a.5.5,0,0,1,.49.41v1.62A5.84,5.84,0,0,1,111-394h1.52a.5.5,0,0,1,.5.5.5.5,0,0,1-.41.49H111a5.84,5.84,0,0,1-5.31,5.31v1.52a.5.5,0,0,1-.5.5.5.5,0,0,1-.49-.41v-1.61A5.84,5.84,0,0,1,99.37-393H97.85a.5.5,0,0,1-.5-.5.49.49,0,0,1,.41-.49h1.61a5.82,5.82,0,0,1,5.31-5.31v-1.53A.5.5,0,0,1,105.18-401.3Z"/></clipPath></defs><g id="圖層_1" data-name="圖層 1"><path class="cls-2" d="M22.89,17.9a1,1,0,0,0,1-1V10.52a3,3,0,0,0-.94-2.16L14.1.91A3,3,0,0,0,10,.85L1,8.42a3,3,0,0,0-.87,2.1V21a3,3,0,0,0,3,3H20.91a3,3,0,0,0,3-3,1,1,0,0,0-1-1,1,1,0,0,0-1,.85l-8-4.8,8-4.79v5.65A1,1,0,0,0,22.89,17.9ZM2.1,20.83V11.26l8,4.79ZM20,22H4l8-4.78Zm-8-7.09L2.88,9.42,11.3,2.31a1,1,0,0,1,1.46.06l8.37,7.05Z"/></g></svg>