<svg xmlns="http://www.w3.org/2000/svg" xmlns:xlink="http://www.w3.org/1999/xlink" viewBox="0 0 24 24"><defs><style>.cls-1{fill:none;}.cls-2{fill:#292929;}.cls-3{clip-path:url(#clip-path);}</style><clipPath id="clip-path"><path class="cls-1" d="M-98.24-540.13a1.33,1.33,0,0,1,1.34,1.33,1.33,1.33,0,0,1-1.34,1.33,1.33,1.33,0,0,1-1.33-1.33A1.33,1.33,0,0,1-98.24-540.13Zm0-3.5a4.83,4.83,0,0,0-4.83,4.83A4.83,4.83,0,0,0-98.24-534h0a4.83,4.83,0,0,0,4.81-4.83v0A4.84,4.84,0,0,0-98.24-543.63Zm0-3a.5.5,0,0,1,.5.41v1.61a5.84,5.84,0,0,1,5.32,5.31h1.51a.5.5,0,0,1,.5.5.49.49,0,0,1-.41.49h-1.6A5.84,5.84,0,0,1-97.74-533v1.52a.5.5,0,0,1-.5.5.49.49,0,0,1-.49-.41V-533A5.84,5.84,0,0,1-104-538.3h-1.52a.5.5,0,0,1-.5-.5.5.5,0,0,1,.41-.49H-104a5.84,5.84,0,0,1,5.31-5.31v-1.52A.5.5,0,0,1-98.24-546.63Z"/></clipPath></defs><g id="圖層_1" data-name="圖層 1"><path class="cls-2" d="M20.69,17.78a1.13,1.13,0,0,0,1.13-1.13V13a3.28,3.28,0,0,0-3.3-3.25h-.9V5.63a5.62,5.62,0,1,0-11.24,0V9.74h-.9A3.28,3.28,0,0,0,2.18,13v7.77A3.28,3.28,0,0,0,5.48,24h13a3.28,3.28,0,0,0,3.3-3.24,1.13,1.13,0,1,0-2.25,0,1,1,0,0,1-1.05,1h-13a1,1,0,0,1-1.05-1V13a1,1,0,0,1,1.05-1h13a1,1,0,0,1,1.05,1v3.66A1.13,1.13,0,0,0,20.69,17.78ZM8.62,5.63a3.38,3.38,0,0,1,6.76,0V9.74H8.62Z"/><path class="cls-2" d="M10.88,15v3.75a1.12,1.12,0,0,0,2.24,0V15a1.12,1.12,0,1,0-2.24,0Z"/></g></svg>