<svg xmlns="http://www.w3.org/2000/svg" xmlns:xlink="http://www.w3.org/1999/xlink" viewBox="0 0 24 24"><defs><style>.cls-1{fill:none;}.cls-2{fill:#292929;}.cls-3{clip-path:url(#clip-path);}</style><clipPath id="clip-path"><path class="cls-1" d="M139.06-429.8a1.34,1.34,0,0,1,1.33,1.34,1.34,1.34,0,0,1-1.33,1.33,1.34,1.34,0,0,1-1.34-1.33A1.34,1.34,0,0,1,139.06-429.8Zm0-3.5a4.84,4.84,0,0,0-4.84,4.84,4.84,4.84,0,0,0,4.84,4.83h0a4.83,4.83,0,0,0,4.81-4.83v0A4.84,4.84,0,0,0,139.06-433.3Zm0-3a.5.5,0,0,1,.49.41v1.62a5.84,5.84,0,0,1,5.31,5.31h1.52a.5.5,0,0,1,.5.5.5.5,0,0,1-.41.49h-1.61a5.84,5.84,0,0,1-5.31,5.31v1.52a.5.5,0,0,1-.5.5.51.51,0,0,1-.5-.41v-1.61a5.84,5.84,0,0,1-5.32-5.31h-1.52a.51.51,0,0,1-.5-.5.5.5,0,0,1,.41-.49h1.61a5.82,5.82,0,0,1,5.32-5.31v-1.53A.5.5,0,0,1,139.06-436.3Z"/></clipPath></defs><g id="圖層_1" data-name="圖層 1"><path class="cls-2" d="M21.38,2.25H2.62A2.63,2.63,0,0,0,0,4.88V19.12a2.63,2.63,0,0,0,2.62,2.63H21.38A2.63,2.63,0,0,0,24,19.12V4.88A2.63,2.63,0,0,0,21.38,2.25ZM2.62,4.5H21.38a.38.38,0,0,1,.37.38V7.25l-9.44,6.68a.38.38,0,0,1-.43,0L2.25,7.12V4.88A.38.38,0,0,1,2.62,4.5Zm18.76,15H2.62a.38.38,0,0,1-.37-.38V9.87l8.33,5.89a2.63,2.63,0,0,0,3,0L21.75,10v9.12A.38.38,0,0,1,21.38,19.5Z"/></g></svg>