<svg xmlns="http://www.w3.org/2000/svg" xmlns:xlink="http://www.w3.org/1999/xlink" viewBox="0 0 24 24"><defs><style>.cls-1{fill:none;}.cls-2{clip-path:url(#clip-path);}.cls-3{fill:#292929;}</style><clipPath id="clip-path"><path class="cls-1" d="M-557.89-540.13a1.33,1.33,0,0,1,1.34,1.33,1.33,1.33,0,0,1-1.34,1.33,1.33,1.33,0,0,1-1.33-1.33A1.33,1.33,0,0,1-557.89-540.13Zm0-3.5a4.83,4.83,0,0,0-4.83,4.83,4.83,4.83,0,0,0,4.83,4.83h0A4.83,4.83,0,0,0-553-538.8v0A4.84,4.84,0,0,0-557.89-543.63Zm0-3a.5.5,0,0,1,.5.41v1.61a5.84,5.84,0,0,1,5.32,5.31h1.51a.5.5,0,0,1,.5.5.49.49,0,0,1-.41.49h-1.6a5.84,5.84,0,0,1-5.32,5.31v1.52a.5.5,0,0,1-.5.5.49.49,0,0,1-.49-.41V-533a5.84,5.84,0,0,1-5.31-5.31h-1.52a.5.5,0,0,1-.5-.5.5.5,0,0,1,.41-.49h1.61a5.84,5.84,0,0,1,5.31-5.31v-1.52A.5.5,0,0,1-557.89-546.63Z"/></clipPath></defs><g id="圖層_2" data-name="圖層 2"><path class="cls-3" d="M5.09,9.59c1.56,1,2.71,1.78,3.52,2.29.07.07.27.19.54.38s.54.39.75.51a5.13,5.13,0,0,0,.68.39,7.54,7.54,0,0,0,.74.31,2.86,2.86,0,0,0,.68.13,2.86,2.86,0,0,0,.68-.13,3.89,3.89,0,0,0,.74-.31c.27-.13.48-.32.68-.39a6.28,6.28,0,0,0,.75-.51c.27-.19.47-.31.54-.38.81-.51,2.91-1.91,6.3-4.07a5.86,5.86,0,0,0,1.63-1.53A3.27,3.27,0,0,0,24,4.37,1.81,1.81,0,0,0,23.39,3,2.19,2.19,0,0,0,21.9,2.4H2.17A1.83,1.83,0,0,0,.61,3,2.16,2.16,0,0,0,0,4.63,3.05,3.05,0,0,0,.75,6.35,7.9,7.9,0,0,0,2.31,7.81C2.58,8,3.52,8.64,5.09,9.59Z"/><path class="cls-3" d="M16.05,14.59c-.55.41-1,.68-1.23.88a7.14,7.14,0,0,1-1.29.61,4.17,4.17,0,0,1-1.5.35,4.17,4.17,0,0,1-1.49-.35,6.82,6.82,0,0,1-1.29-.61A8.44,8.44,0,0,1,8,14.59C6.8,13.7,4.56,12.14,1.36,10A7.76,7.76,0,0,1,0,8.8V19.49A2,2,0,0,0,.61,21a2.1,2.1,0,0,0,1.5.61H21.89a2,2,0,0,0,1.5-.61,2.12,2.12,0,0,0,.61-1.5V8.8A5.42,5.42,0,0,1,22.71,10C19.78,11.93,17.54,13.5,16.05,14.59Z"/></g></svg>