<svg xmlns="http://www.w3.org/2000/svg" xmlns:xlink="http://www.w3.org/1999/xlink" viewBox="0 0 24 24"><defs><style>.cls-1{fill:none;}.cls-2{fill:#292929;fill-rule:evenodd;}.cls-3{clip-path:url(#clip-path);}</style><clipPath id="clip-path"><path class="cls-1" d="M70.93-465.8a1.33,1.33,0,0,1,1.33,1.34,1.33,1.33,0,0,1-1.33,1.33,1.33,1.33,0,0,1-1.33-1.33A1.33,1.33,0,0,1,70.93-465.8Zm0-3.5a4.84,4.84,0,0,0-4.83,4.84,4.83,4.83,0,0,0,4.83,4.83h0a4.83,4.83,0,0,0,4.8-4.83v0A4.83,4.83,0,0,0,70.93-469.3Zm0-3a.5.5,0,0,1,.49.41v1.62A5.84,5.84,0,0,1,76.74-465h1.52a.5.5,0,0,1,.5.5.5.5,0,0,1-.41.49H76.74a5.84,5.84,0,0,1-5.31,5.31v1.52a.5.5,0,0,1-.5.5.5.5,0,0,1-.49-.41v-1.61A5.84,5.84,0,0,1,65.12-464H63.6a.5.5,0,0,1-.5-.5.49.49,0,0,1,.41-.49h1.61a5.82,5.82,0,0,1,5.31-5.31v-1.53A.5.5,0,0,1,70.93-472.3Z"/></clipPath></defs><g id="圖層_1" data-name="圖層 1"><path class="cls-2" d="M12,.16A9.38,9.38,0,0,0,2.63,9.53c0,3.69,2.43,6.79,4.58,9.52L8,20a.81.81,0,0,0,.77.34.84.84,0,0,0,.67-.51A.81.81,0,0,0,9.25,19L8.5,18c-2-2.52-4.23-5.38-4.23-8.5a7.73,7.73,0,0,1,15.46,0A9.91,9.91,0,0,1,17.57,15,32.55,32.55,0,0,1,15.2,18.1l-3.84,4.72a.82.82,0,0,0,1.28,1l3.81-4.69a34.9,34.9,0,0,0,2.47-3.26,11.44,11.44,0,0,0,2.45-6.38A9.38,9.38,0,0,0,12,.16"/><path class="cls-2" d="M16,9.53a4,4,0,1,0-4,4,4,4,0,0,0,4-4m-6.36,0A2.36,2.36,0,1,1,12,11.88,2.36,2.36,0,0,1,9.64,9.53"/></g></svg>