<svg xmlns="http://www.w3.org/2000/svg" xmlns:xlink="http://www.w3.org/1999/xlink" viewBox="0 0 24 24"><defs><style>.cls-1{fill:none;}.cls-2{fill:#272828;fill-rule:evenodd;}.cls-3{clip-path:url(#clip-path);}</style><clipPath id="clip-path"><path class="cls-1" d="M-169.82-429.8a1.33,1.33,0,0,1,1.33,1.34,1.33,1.33,0,0,1-1.33,1.33,1.33,1.33,0,0,1-1.33-1.33A1.33,1.33,0,0,1-169.82-429.8Zm0-3.5a4.84,4.84,0,0,0-4.83,4.84,4.83,4.83,0,0,0,4.83,4.83h0a4.83,4.83,0,0,0,4.8-4.83v0A4.83,4.83,0,0,0-169.82-433.3Zm0-3a.5.5,0,0,1,.49.41v1.62A5.84,5.84,0,0,1-164-429h1.52a.5.5,0,0,1,.5.5.5.5,0,0,1-.41.49H-164a5.84,5.84,0,0,1-5.31,5.31v1.52a.5.5,0,0,1-.5.5.5.5,0,0,1-.49-.41v-1.61a5.84,5.84,0,0,1-5.31-5.31h-1.52a.5.5,0,0,1-.5-.5.49.49,0,0,1,.41-.49h1.61a5.82,5.82,0,0,1,5.31-5.31v-1.53A.5.5,0,0,1-169.82-436.3Z"/></clipPath></defs><g id="圖層_2" data-name="圖層 2"><path class="cls-2" d="M3,10.87a1.13,1.13,0,0,0,0,2.26H21a1.13,1.13,0,1,0,0-2.26Z"/></g></svg>