<?xml version="1.0" encoding="utf-8"?>
<!-- Generator: Adobe Illustrator 25.2.3, SVG Export Plug-In . SVG Version: 6.00 Build 0)  -->
<svg version="1.1" baseProfile="tiny" id="圖層_1"
	 xmlns="http://www.w3.org/2000/svg" xmlns:xlink="http://www.w3.org/1999/xlink" x="0px" y="0px" viewBox="0 0 24 24"
	 overflow="visible" xml:space="preserve">
<g>
	<g>
		<g>
			<g>
				<g transform="translate(-458 -543) translate(434 521) translate(16 14) translate(8 8)">
					<path fill="#292929" d="M16.8,23.5H7.2c-1.5,0-2.8-1.2-2.8-2.8V3.2c0-1.5,1.2-2.8,2.8-2.8h9.5c1.5,0,2.8,1.2,2.8,2.8v17.5
						C19.5,22.3,18.3,23.5,16.8,23.5z M7.2,2C6.6,2,6,2.6,6,3.2v17.5C6,21.4,6.6,22,7.2,22h9.5c0.7,0,1.2-0.6,1.2-1.2V3.2
						C18,2.6,17.4,2,16.8,2H7.2z"/>
					<path fill="#292929" d="M18.8,20.2H5.2v-1.5h13.5L18.8,20.2L18.8,20.2z M18.8,5.2H5.2V3.8h13.5L18.8,5.2L18.8,5.2z"/>
				</g>
			</g>
		</g>
	</g>
</g>
</svg>
