<svg xmlns="http://www.w3.org/2000/svg" xmlns:xlink="http://www.w3.org/1999/xlink" viewBox="0 0 24 24"><defs><style>.cls-1{fill:none;}.cls-2{fill:#292929;}.cls-3{clip-path:url(#clip-path);}</style><clipPath id="clip-path"><path class="cls-1" d="M3.43-501.8a1.33,1.33,0,0,1,1.33,1.33,1.33,1.33,0,0,1-1.33,1.34,1.33,1.33,0,0,1-1.33-1.34A1.33,1.33,0,0,1,3.43-501.8Zm0-3.5a4.83,4.83,0,0,0-4.83,4.83,4.84,4.84,0,0,0,4.83,4.84h0a4.84,4.84,0,0,0,4.8-4.84v0A4.83,4.83,0,0,0,3.43-505.3Zm0-3a.5.5,0,0,1,.49.41v1.61A5.84,5.84,0,0,1,9.24-501h1.52a.5.5,0,0,1,.5.5.51.51,0,0,1-.41.5H9.24a5.84,5.84,0,0,1-5.31,5.32v1.52a.5.5,0,0,1-.5.5.5.5,0,0,1-.49-.41v-1.61A5.84,5.84,0,0,1-2.38-500H-3.9a.5.5,0,0,1-.5-.5A.49.49,0,0,1-4-501h1.61a5.84,5.84,0,0,1,5.31-5.31v-1.52A.5.5,0,0,1,3.43-508.3Z"/></clipPath></defs><g id="圖層_1" data-name="圖層 1"><path class="cls-2" d="M20.26,6.45a1.16,1.16,0,0,0-.78.06V3.66A3.31,3.31,0,0,0,16.35.19h-.56a3.16,3.16,0,0,0-2.91,2.18L3.19,4C1.16,4.32,0,5.55,0,7.34v7.6a3.36,3.36,0,0,0,2.24,3.11l-.34.72a3.25,3.25,0,0,0,1.57,4.31l.93.43a3.28,3.28,0,0,0,1.36.3A3.24,3.24,0,0,0,8.7,21.94l1.18-2.53,3,.5a3.16,3.16,0,0,0,2.91,2.18h.56a3.32,3.32,0,0,0,3.13-3.47V16.45a1,1,0,0,0,.46.11,1.22,1.22,0,0,0,.32,0,5.27,5.27,0,0,0,3.74-5A5.19,5.19,0,0,0,20.26,6.45ZM17.21,18.62c0,.64-.4,1.2-.86,1.2h-.56c-.41,0-.79-.47-.85-1a1.13,1.13,0,0,0-.94-1L9.4,17a1.15,1.15,0,0,0-1.22.64L6.64,21a1,1,0,0,1-1.28.47L4.43,21A1,1,0,0,1,4,19.74l.92-2A1.13,1.13,0,0,0,4,16.15l-.46-.08c-.6-.1-1.31-.46-1.31-1.13V7.34c0-.32,0-.91,1.3-1.13l9.54-1.57v7.68a1.14,1.14,0,0,0,2.28,0V2.81a.66.66,0,0,0,0-.15.64.64,0,0,1,.43-.2h.56c.46,0,.86.56.86,1.2Zm2.41-4.29-.14.07V8.56a.91.91,0,0,0,.14.07,2.91,2.91,0,0,1,2.11,2.85A3,3,0,0,1,19.62,14.33Z"/></g></svg>