<svg xmlns="http://www.w3.org/2000/svg" xmlns:xlink="http://www.w3.org/1999/xlink" viewBox="0 0 24 24"><defs><style>.cls-1{fill:none;}.cls-2{fill:#292929;fill-rule:evenodd;}.cls-3{clip-path:url(#clip-path);}</style><clipPath id="clip-path"><path class="cls-1" d="M70.93-360.13a1.33,1.33,0,0,1,1.33,1.33,1.33,1.33,0,0,1-1.33,1.34,1.33,1.33,0,0,1-1.33-1.34A1.33,1.33,0,0,1,70.93-360.13Zm0-3.5a4.83,4.83,0,0,0-4.83,4.83A4.84,4.84,0,0,0,70.93-354h0a4.84,4.84,0,0,0,4.8-4.84v0A4.83,4.83,0,0,0,70.93-363.63Zm0-3a.5.5,0,0,1,.49.41v1.61a5.84,5.84,0,0,1,5.31,5.31h1.52a.5.5,0,0,1,.5.5.51.51,0,0,1-.41.5H76.74A5.84,5.84,0,0,1,71.43-353v1.52a.5.5,0,0,1-.5.5.5.5,0,0,1-.49-.41V-353a5.84,5.84,0,0,1-5.31-5.32H63.6a.5.5,0,0,1-.5-.5.49.49,0,0,1,.41-.49h1.61a5.84,5.84,0,0,1,5.31-5.31v-1.52A.5.5,0,0,1,70.93-366.63Z"/></clipPath></defs><g id="圖層_1" data-name="圖層 1"><path class="cls-2" d="M14.92.77H9.08A9.26,9.26,0,0,0,0,10.15,9.15,9.15,0,0,0,1.3,15a18.56,18.56,0,0,0,2.53,3.35l-.2,4.15v.07a.75.75,0,0,0,1.11.6l5.12-3.61h5.06A9.27,9.27,0,0,0,24,10.15,9.26,9.26,0,0,0,14.92.77M4.93,12a1.93,1.93,0,1,1,1.92-1.93A1.92,1.92,0,0,1,4.93,12M12,12a1.93,1.93,0,1,1,1.92-1.93A1.92,1.92,0,0,1,12,12m7.07,0A1.93,1.93,0,1,1,21,10.07,1.92,1.92,0,0,1,19.07,12"/></g></svg>