<?xml version="1.0" encoding="utf-8"?>
<!-- Generator: Adobe Illustrator 25.2.3, SVG Export Plug-In . SVG Version: 6.00 Build 0)  -->
<svg version="1.1" baseProfile="tiny" id="圖層_1"
	 xmlns="http://www.w3.org/2000/svg" xmlns:xlink="http://www.w3.org/1999/xlink" x="0px" y="0px" viewBox="0 0 24 24"
	 overflow="visible" xml:space="preserve">
<g id="圖層_2_1_">
	<path fill-rule="evenodd" fill="#292929" d="M20.6,5.3h-0.3c0.2-0.5,0.3-0.9,0.3-1.4c0.1-1.7-1.2-3.2-2.9-3.4c-0.1,0-0.2,0-0.2,0
		l-3.8,1c-0.1,0-0.2,0.1-0.3,0.1c-0.3-0.1-0.6-0.2-0.9-0.2h-1c-0.3,0-0.6,0.1-0.9,0.2c-0.1-0.1-0.2-0.1-0.3-0.1l-3.8-1
		c-0.1,0-0.2,0-0.2,0c-1.7,0.1-3,1.6-2.9,3.3c0,0.5,0.1,1,0.3,1.4H3.4c-1.6,0-2.9,1.3-2.9,2.9V11c0,0.7,0.4,1.3,1,1.6v8
		c0,1.6,1.3,2.9,2.9,2.9h15.3c1.6,0,2.9-1.3,2.9-2.9v0c-0.2-0.5-0.7-0.8-1.2-0.7c-0.3,0.1-0.6,0.4-0.7,0.7c0,0.6-0.4,1-1,1h-4.8V13
		h5.8v3.8c-0.2,0.5,0.1,1.1,0.7,1.2s1.1-0.1,1.2-0.7c0.1-0.2,0.1-0.4,0-0.6v-4.1c0.6-0.3,1-1,1-1.6V8.2C23.5,6.6,22.2,5.3,20.6,5.3
		L20.6,5.3z M13,11h-2V7.2h2V11z M17.9,2.4c0.6,0.2,0.9,0.8,0.9,1.4c0.1,0.6-0.3,1.2-0.9,1.4l-3-0.7V3.8c0-0.2,0-0.4-0.1-0.7
		L17.9,2.4z M11,3.8c0-0.3,0.2-0.5,0.5-0.5h1c0.3,0,0.5,0.2,0.5,0.5v1c0,0.3-0.2,0.5-0.5,0.5h-1c-0.3,0-0.5-0.2-0.5-0.5c0,0,0,0,0,0
		V3.8z M6.2,2.4l3.1,0.8C9.2,3.4,9.1,3.6,9.1,3.8v0.7l-3,0.7C5.5,5,5.2,4.5,5.2,3.8C5.2,3.2,5.6,2.6,6.2,2.4z M2.4,8.2
		c0-0.6,0.4-1,1-1h5.7V11H2.4V8.2z M3.4,20.6V13h5.7v8.6H4.3C3.8,21.6,3.4,21.2,3.4,20.6L3.4,20.6z M13,21.6h-2V13h2V21.6z
		 M14.9,7.2h5.8c0.6,0,1,0.4,1,1V11h-6.8V7.2z"/>
</g>
</svg>
