<svg xmlns="http://www.w3.org/2000/svg" xmlns:xlink="http://www.w3.org/1999/xlink" viewBox="0 0 24 24"><defs><style>.cls-1{fill:none;}.cls-2{fill:#292929;fill-rule:evenodd;}.cls-3{clip-path:url(#clip-path);}</style><clipPath id="clip-path"><path class="cls-1" d="M175.68-501.8a1.33,1.33,0,0,1,1.33,1.33,1.33,1.33,0,0,1-1.33,1.34,1.33,1.33,0,0,1-1.33-1.34A1.33,1.33,0,0,1,175.68-501.8Zm0-3.5a4.83,4.83,0,0,0-4.83,4.83,4.84,4.84,0,0,0,4.83,4.84h0a4.84,4.84,0,0,0,4.8-4.84v0A4.83,4.83,0,0,0,175.68-505.3Zm0-3a.5.5,0,0,1,.49.41v1.61a5.84,5.84,0,0,1,5.31,5.31H183a.5.5,0,0,1,.5.5.51.51,0,0,1-.41.5h-1.61a5.84,5.84,0,0,1-5.31,5.32v1.52a.5.5,0,0,1-.5.5.5.5,0,0,1-.49-.41v-1.61a5.84,5.84,0,0,1-5.31-5.32h-1.52a.5.5,0,0,1-.5-.5.49.49,0,0,1,.41-.49h1.61a5.84,5.84,0,0,1,5.31-5.31v-1.52A.5.5,0,0,1,175.68-508.3Z"/></clipPath></defs><g id="圖層_1" data-name="圖層 1"><path class="cls-2" d="M8.82,22.48a.73.73,0,0,0,1,.18l4.09-3a1.52,1.52,0,0,1,1.86.16c.72.65,3.87,3.53,4.19,3.84s.7.42,1,.19a.78.78,0,0,0,.14-1c-.18-.38-2-4.25-2.36-5.18a1.53,1.53,0,0,1,.41-1.81l4.11-3a.72.72,0,0,0,.13-1h0A6.83,6.83,0,0,0,17.84,9l-3.35-4.6,1.73-1.26a.72.72,0,0,0,.13-1h0L15.48,1a2.19,2.19,0,0,0-3-.56L1.29,8.49a2.18,2.18,0,0,0-.41,3.06l.87,1.21a.74.74,0,0,0,1,.19l1.72-1.26L7.84,16.3A6.81,6.81,0,0,0,8.82,22.48Z"/></g></svg>