<svg xmlns="http://www.w3.org/2000/svg" xmlns:xlink="http://www.w3.org/1999/xlink" viewBox="0 0 24 24"><defs><style>.cls-1{fill:none;}.cls-2{fill:#292929;}.cls-3{clip-path:url(#clip-path);}</style><clipPath id="clip-path"><path class="cls-1" d="M70.93-540.13a1.32,1.32,0,0,1,1.33,1.33,1.32,1.32,0,0,1-1.33,1.33,1.32,1.32,0,0,1-1.33-1.33A1.32,1.32,0,0,1,70.93-540.13Zm0-3.5a4.83,4.83,0,0,0-4.83,4.83A4.83,4.83,0,0,0,70.93-534h0a4.83,4.83,0,0,0,4.8-4.83v0A4.83,4.83,0,0,0,70.93-543.63Zm0-3a.49.49,0,0,1,.49.41v1.61a5.84,5.84,0,0,1,5.31,5.31h1.52a.5.5,0,0,1,.5.5.5.5,0,0,1-.41.49H76.74A5.84,5.84,0,0,1,71.43-533v1.52a.5.5,0,0,1-.5.5.49.49,0,0,1-.49-.41V-533a5.84,5.84,0,0,1-5.31-5.31H63.6a.5.5,0,0,1-.5-.5.49.49,0,0,1,.41-.49h1.61a5.84,5.84,0,0,1,5.31-5.31v-1.52A.5.5,0,0,1,70.93-546.63Z"/></clipPath></defs><g id="圖層_1" data-name="圖層 1"><path class="cls-2" d="M21.57,15a11.23,11.23,0,0,0-8.09-4.14A5.51,5.51,0,0,0,17.35,7a5.65,5.65,0,0,0,.17-1.08,1.11,1.11,0,0,0-1-1.2,1.13,1.13,0,0,0-1.2,1,3,3,0,0,1-.11.65A3.28,3.28,0,1,1,8.84,4.72a3.27,3.27,0,0,1,4-2.31,2.88,2.88,0,0,1,.83.35A1.13,1.13,0,0,0,14.84.82a5.26,5.26,0,0,0-1.4-.59,5.53,5.53,0,0,0-2.9,10.67,11.43,11.43,0,0,0-8.11,4.17A7.78,7.78,0,0,0,.81,19.92,3.85,3.85,0,0,0,2,22.67,4.5,4.5,0,0,0,5.14,24H18.86a4.18,4.18,0,0,0,4.33-4v0A7.75,7.75,0,0,0,21.57,15Zm-.63,4.9a2,2,0,0,1-2.08,1.77H5.14a2.21,2.21,0,0,1-1.58-.63,1.6,1.6,0,0,1-.5-1.17,5.54,5.54,0,0,1,1.11-3.42A9.49,9.49,0,0,1,12,13.09a9.48,9.48,0,0,1,7.84,3.38,5.44,5.44,0,0,1,1.11,3.43Z"/></g></svg>