<svg xmlns="http://www.w3.org/2000/svg" xmlns:xlink="http://www.w3.org/1999/xlink" viewBox="0 0 24 24"><defs><style>.cls-1{fill:none;}.cls-2{fill:#292929;}.cls-3{clip-path:url(#clip-path);}</style><clipPath id="clip-path"><path class="cls-1" d="M175.68-465.8a1.33,1.33,0,0,1,1.33,1.34,1.33,1.33,0,0,1-1.33,1.33,1.33,1.33,0,0,1-1.33-1.33A1.33,1.33,0,0,1,175.68-465.8Zm0-3.5a4.84,4.84,0,0,0-4.83,4.84,4.83,4.83,0,0,0,4.83,4.83h0a4.83,4.83,0,0,0,4.8-4.83v0A4.83,4.83,0,0,0,175.68-469.3Zm0-3a.5.5,0,0,1,.49.41v1.62a5.84,5.84,0,0,1,5.31,5.31H183a.5.5,0,0,1,.5.5.5.5,0,0,1-.41.49h-1.61a5.84,5.84,0,0,1-5.31,5.31v1.52a.5.5,0,0,1-.5.5.5.5,0,0,1-.49-.41v-1.61a5.84,5.84,0,0,1-5.31-5.31h-1.52a.5.5,0,0,1-.5-.5.49.49,0,0,1,.41-.49h1.61a5.82,5.82,0,0,1,5.31-5.31v-1.53A.5.5,0,0,1,175.68-472.3Z"/></clipPath></defs><g id="圖層_1" data-name="圖層 1"><path class="cls-2" d="M23.61,21.62l-4.92-4.28a10,10,0,0,0,2.59-6.69A10.47,10.47,0,0,0,10.64.39,10.47,10.47,0,0,0,0,10.65,10.46,10.46,0,0,0,10.64,20.91,10.82,10.82,0,0,0,17,18.86l5.14,4.47a1.18,1.18,0,0,0,.74.28,1.13,1.13,0,0,0,.74-2Zm-21.35-11a8.21,8.21,0,0,1,8.38-8,8.21,8.21,0,0,1,8.38,8,8.21,8.21,0,0,1-8.38,8A8.21,8.21,0,0,1,2.26,10.65Z"/></g></svg>