<svg xmlns="http://www.w3.org/2000/svg" xmlns:xlink="http://www.w3.org/1999/xlink" viewBox="0 0 24 24"><defs><style>.cls-1{fill:none;}.cls-2{fill:#282929;fill-rule:evenodd;}.cls-3{clip-path:url(#clip-path);}</style><clipPath id="clip-path"><path class="cls-1" d="M-134.15-429.8a1.34,1.34,0,0,1,1.33,1.34,1.34,1.34,0,0,1-1.33,1.33,1.34,1.34,0,0,1-1.34-1.33A1.34,1.34,0,0,1-134.15-429.8Zm0-3.5a4.84,4.84,0,0,0-4.84,4.84,4.84,4.84,0,0,0,4.84,4.83h0a4.83,4.83,0,0,0,4.81-4.83v0A4.83,4.83,0,0,0-134.15-433.3Zm0-3a.5.5,0,0,1,.49.41v1.62a5.84,5.84,0,0,1,5.31,5.31h1.52a.5.5,0,0,1,.5.5.5.5,0,0,1-.41.49h-1.61a5.84,5.84,0,0,1-5.31,5.31v1.52a.5.5,0,0,1-.5.5.5.5,0,0,1-.49-.41v-1.61A5.82,5.82,0,0,1-140-428h-1.53a.51.51,0,0,1-.5-.5.5.5,0,0,1,.41-.49H-140a5.8,5.8,0,0,1,5.31-5.31v-1.53A.5.5,0,0,1-134.15-436.3Z"/></clipPath></defs><g id="圖層_2" data-name="圖層 2"><path class="cls-2" d="M1,12A3.5,3.5,0,0,1,7.21,9.78L16.1,5.33A3.2,3.2,0,0,1,16,4.5a3.51,3.51,0,1,1,1.12,2.56L8,11.63c0,.12,0,.24,0,.37s0,.25,0,.37l9.14,4.57A3.5,3.5,0,1,1,16,19.5a3.2,3.2,0,0,1,.1-.83L7.21,14.22A3.5,3.5,0,0,1,1,12Z"/></g></svg>