<svg xmlns="http://www.w3.org/2000/svg" xmlns:xlink="http://www.w3.org/1999/xlink" viewBox="0 0 24 24"><defs><style>.cls-1{fill:none;}.cls-2{fill:#292929;fill-rule:evenodd;}.cls-3{clip-path:url(#clip-path);}</style><clipPath id="clip-path"><path class="cls-1" d="M105.18-360.13a1.33,1.33,0,0,1,1.33,1.33,1.33,1.33,0,0,1-1.33,1.34,1.33,1.33,0,0,1-1.33-1.34A1.33,1.33,0,0,1,105.18-360.13Zm0-3.5a4.83,4.83,0,0,0-4.83,4.83,4.84,4.84,0,0,0,4.83,4.84h0a4.84,4.84,0,0,0,4.8-4.84v0A4.83,4.83,0,0,0,105.18-363.63Zm0-3a.5.5,0,0,1,.49.41v1.61A5.84,5.84,0,0,1,111-359.3h1.52a.5.5,0,0,1,.5.5.51.51,0,0,1-.41.5H111a5.84,5.84,0,0,1-5.31,5.32v1.52a.5.5,0,0,1-.5.5.5.5,0,0,1-.49-.41V-353a5.84,5.84,0,0,1-5.31-5.32H97.85a.5.5,0,0,1-.5-.5.49.49,0,0,1,.41-.49h1.61a5.84,5.84,0,0,1,5.31-5.31v-1.52A.5.5,0,0,1,105.18-366.63Z"/></clipPath></defs><g id="圖層_1" data-name="圖層 1"><path class="cls-2" d="M20,14.62a2.28,2.28,0,0,0-.62,2l.77,4.65A2.22,2.22,0,0,1,18,23.88a2.09,2.09,0,0,1-1-.27l-4-2.19a2.05,2.05,0,0,0-2,0L7,23.61a2.09,2.09,0,0,1-1,.27,2.22,2.22,0,0,1-2.12-2.63l.77-4.65a2.28,2.28,0,0,0-.62-2L.78,11.33A2.26,2.26,0,0,1,2,7.51l4.48-.68A2.17,2.17,0,0,0,8.07,5.6l2-4.23a2.11,2.11,0,0,1,3.86,0l2,4.23a2.17,2.17,0,0,0,1.62,1.23L22,7.51a2.26,2.26,0,0,1,1.19,3.82Z"/></g></svg>