<svg xmlns="http://www.w3.org/2000/svg" xmlns:xlink="http://www.w3.org/1999/xlink" viewBox="0 0 24 24"><defs><style>.cls-1{fill:none;}.cls-2{fill:#292929;}.cls-3{clip-path:url(#clip-path);}</style><clipPath id="clip-path"><path class="cls-1" d="M175.68-429.8a1.33,1.33,0,0,1,1.33,1.34,1.33,1.33,0,0,1-1.33,1.33,1.33,1.33,0,0,1-1.33-1.33A1.33,1.33,0,0,1,175.68-429.8Zm0-3.5a4.84,4.84,0,0,0-4.83,4.84,4.83,4.83,0,0,0,4.83,4.83h0a4.82,4.82,0,0,0,4.8-4.83v0A4.83,4.83,0,0,0,175.68-433.3Zm0-3a.5.5,0,0,1,.49.41v1.62a5.84,5.84,0,0,1,5.31,5.31H183a.5.5,0,0,1,.5.5.5.5,0,0,1-.41.49h-1.61a5.84,5.84,0,0,1-5.31,5.31v1.52a.5.5,0,0,1-.5.5.5.5,0,0,1-.49-.41v-1.61a5.84,5.84,0,0,1-5.31-5.31h-1.52a.5.5,0,0,1-.5-.5.49.49,0,0,1,.41-.49h1.61a5.82,5.82,0,0,1,5.31-5.31v-1.53A.51.51,0,0,1,175.68-436.3Z"/></clipPath></defs><g id="圖層_1" data-name="圖層 1"><g id="Page-1"><g id="icon16_icon_favor_default" data-name="icon16/icon_favor_default"><g id="icon_favor_normal" data-name="icon favor normal"><path class="cls-2" d="M18.07,24a2.2,2.2,0,0,1-1-.26l-4-2.22a2.1,2.1,0,0,0-2,0l-4,2.21a2.13,2.13,0,0,1-2.64-.5,2.27,2.27,0,0,1-.51-1.88l.77-4.7a2.33,2.33,0,0,0-.62-2L.66,11.32A2.3,2.3,0,0,1,.12,9a2.2,2.2,0,0,1,1.74-1.5l4.53-.69A2.18,2.18,0,0,0,8,5.54l2-4.28a2.14,2.14,0,0,1,3.9,0l2,4.28a2.16,2.16,0,0,0,1.64,1.23l4.53.69A2.19,2.19,0,0,1,23.88,9a2.3,2.3,0,0,1-.54,2.36l-3.28,3.33a2.32,2.32,0,0,0-.62,2l.77,4.7a2.27,2.27,0,0,1-.51,1.88A2.13,2.13,0,0,1,18.07,24ZM12,2.41,10.06,6.5A4.42,4.42,0,0,1,6.73,9L2.2,9.68l3.34,3.39A4.57,4.57,0,0,1,6.78,17L6,21.68l3.9-2.14a4.42,4.42,0,0,1,4.18,0L18,21.67,17.22,17a4.57,4.57,0,0,1,1.24-3.94l3.28-3.33L17.27,9a4.44,4.44,0,0,1-3.33-2.5Z"/></g></g></g></g></svg>