<svg xmlns="http://www.w3.org/2000/svg" xmlns:xlink="http://www.w3.org/1999/xlink" viewBox="0 0 24 24"><defs><style>.cls-1{fill:none;}.cls-2{fill:#292929;}.cls-3{clip-path:url(#clip-path);}</style><clipPath id="clip-path"><path class="cls-1" d="M-203.11-540.13a1.32,1.32,0,0,1,1.33,1.33,1.32,1.32,0,0,1-1.33,1.33,1.32,1.32,0,0,1-1.33-1.33A1.32,1.32,0,0,1-203.11-540.13Zm0-3.5a4.83,4.83,0,0,0-4.83,4.83,4.83,4.83,0,0,0,4.83,4.83h0a4.83,4.83,0,0,0,4.8-4.83v0A4.83,4.83,0,0,0-203.11-543.63Zm0-3a.49.49,0,0,1,.49.41v1.61a5.84,5.84,0,0,1,5.31,5.31h1.52a.5.5,0,0,1,.5.5.5.5,0,0,1-.41.49h-1.61a5.84,5.84,0,0,1-5.31,5.31v1.52a.5.5,0,0,1-.5.5.49.49,0,0,1-.49-.41V-533a5.84,5.84,0,0,1-5.31-5.31h-1.52a.5.5,0,0,1-.5-.5.49.49,0,0,1,.41-.49h1.61a5.84,5.84,0,0,1,5.31-5.31v-1.52A.5.5,0,0,1-203.11-546.63Z"/></clipPath></defs><g id="圖層_1" data-name="圖層 1"><path class="cls-2" d="M23.1,3.23a1.13,1.13,0,0,0-2.23.3V5.17a11.12,11.12,0,0,0-20,7.27A1.13,1.13,0,0,0,2,13.51h.07a1.14,1.14,0,0,0,1.06-1.19,8.71,8.71,0,0,1,.41-3.16A8.87,8.87,0,0,1,14.69,3.4a8.76,8.76,0,0,1,4.53,3.29,1,1,0,0,0,.22.2l-1.89,0a1.11,1.11,0,0,0-1.11,1.14,1.13,1.13,0,0,0,1.12,1.11h0l4.19-.08a1.38,1.38,0,0,0,1.35-1.38V3.48A2.11,2.11,0,0,0,23.1,3.23ZM20.87,6.87h0Z"/><path class="cls-2" d="M21.93,10.49a1.14,1.14,0,0,0-1.07,1.19A8.89,8.89,0,0,1,16.07,20,8.88,8.88,0,0,1,4.78,17.31a1,1,0,0,0-.22-.2l1.9,0a1.13,1.13,0,0,0,0-2.25l-4.18.08A1.39,1.39,0,0,0,.88,16.28v4.24a2.11,2.11,0,0,0,0,.25,1.12,1.12,0,0,0,1.1.92h.21a1.13,1.13,0,0,0,.92-1.21V18.83a11,11,0,0,0,5.49,3.92,11.36,11.36,0,0,0,3.39.53,11.14,11.14,0,0,0,11.1-11.72A1.15,1.15,0,0,0,21.93,10.49ZM3.13,17.13h0Z"/></g></svg>