<svg xmlns="http://www.w3.org/2000/svg" xmlns:xlink="http://www.w3.org/1999/xlink" viewBox="0 0 24 24"><defs><style>.cls-1{fill:none;}.cls-2{fill:#292929;}.cls-3{clip-path:url(#clip-path);}</style><clipPath id="clip-path"><path class="cls-1" d="M-100-501.8a1.34,1.34,0,0,1,1.34,1.33,1.34,1.34,0,0,1-1.34,1.34,1.34,1.34,0,0,1-1.33-1.34A1.34,1.34,0,0,1-100-501.8Zm0-3.5a4.83,4.83,0,0,0-4.83,4.83,4.84,4.84,0,0,0,4.83,4.84h0a4.84,4.84,0,0,0,4.81-4.84v0A4.84,4.84,0,0,0-100-505.3Zm0-3a.5.5,0,0,1,.49.41v1.61A5.82,5.82,0,0,1-94.22-501h1.52a.5.5,0,0,1,.5.5.5.5,0,0,1-.41.5h-1.61a5.83,5.83,0,0,1-5.31,5.32v1.52a.5.5,0,0,1-.5.5.5.5,0,0,1-.49-.41v-1.61a5.84,5.84,0,0,1-5.31-5.32h-1.52a.5.5,0,0,1-.5-.5.5.5,0,0,1,.41-.49h1.61a5.84,5.84,0,0,1,5.31-5.31v-1.52A.5.5,0,0,1-100-508.3Z"/></clipPath></defs><g id="圖層_1" data-name="圖層 1"><g id="圖層_1-2" data-name="圖層 1"><path class="cls-2" d="M21,17.23a5.23,5.23,0,0,1-.4,1.78A3.31,3.31,0,0,1,19,20.36a4.9,4.9,0,0,1-2.37.65,10.25,10.25,0,0,1-3.35-.88A12.4,12.4,0,0,1,11,19.07a22.16,22.16,0,0,1-6.14-6.14,12.4,12.4,0,0,1-1.06-2.24A10.26,10.26,0,0,1,3,7.34,4.89,4.89,0,0,1,3.63,5,3.31,3.31,0,0,1,5,3.41,5.23,5.23,0,0,1,6.76,3,.62.62,0,0,1,7,3c.27.09.55.71.68,1,.41.73.81,1.47,1.23,2.19.2.33.59.74.59,1.13,0,.78-2.32,1.92-2.32,2.61a3,3,0,0,0,.5,1.1A12.73,12.73,0,0,0,13,16.28a3,3,0,0,0,1.1.5c.69,0,1.83-2.32,2.61-2.32.39,0,.8.39,1.13.59.72.42,1.46.82,2.19,1.23.26.13.88.41,1,.68A.63.63,0,0,1,21,17.23Z"/></g></g></svg>