<svg xmlns="http://www.w3.org/2000/svg" xmlns:xlink="http://www.w3.org/1999/xlink" viewBox="0 0 24 24"><defs><style>.cls-1{fill:none;}.cls-2{fill:#292929;}.cls-3{clip-path:url(#clip-path);}</style><clipPath id="clip-path"><path class="cls-1" d="M-340.11-429.8a1.33,1.33,0,0,1,1.33,1.34,1.33,1.33,0,0,1-1.33,1.33,1.33,1.33,0,0,1-1.33-1.33A1.33,1.33,0,0,1-340.11-429.8Zm0-3.5a4.84,4.84,0,0,0-4.83,4.84,4.83,4.83,0,0,0,4.83,4.83h0a4.83,4.83,0,0,0,4.8-4.83v0A4.83,4.83,0,0,0-340.11-433.3Zm0-3a.5.5,0,0,1,.49.41v1.62A5.84,5.84,0,0,1-334.3-429h1.52a.5.5,0,0,1,.5.5.5.5,0,0,1-.41.49h-1.61a5.84,5.84,0,0,1-5.31,5.31v1.52a.5.5,0,0,1-.5.5.5.5,0,0,1-.49-.41v-1.61a5.84,5.84,0,0,1-5.31-5.31h-1.52a.5.5,0,0,1-.5-.5.49.49,0,0,1,.41-.49h1.61a5.82,5.82,0,0,1,5.31-5.31v-1.53A.5.5,0,0,1-340.11-436.3Z"/></clipPath></defs><g id="圖層_1" data-name="圖層 1"><g id="icon16_icon_focus" data-name="icon16/icon_focus"><g id="icon_focus" data-name="icon focus"><g id="Group-6"><path id="Fill-4" class="cls-2" d="M2.69,11.15H1.11A1.11,1.11,0,0,0,0,12.26V21a1.11,1.11,0,0,0,1.11,1.11H2.69A1.11,1.11,0,0,0,3.8,21V12.26a1.11,1.11,0,0,0-1.11-1.11"/><path id="Fill-1" class="cls-2" d="M22.82,15.81c0-.43,1.18-.38,1.18-1.91s-1.52-1.22-1.52-1.69,1-.6,1-1.81c0-.76-.62-1.57-2.6-1.43a27.62,27.62,0,0,0-3.07.31c-1.48.19-2-1.52-1.3-3a7.34,7.34,0,0,0,.66-4.43c-.3-1.13-2.6-1.91-2.89,0C13.79,5,10.1,9.7,6.52,11.43a1.8,1.8,0,0,0-.77,1.68v7.06c0,.82.3,1.09,1.06,1.42,3.43,1.53,6,1.75,11.72,1.75,4.4,0,4.85-1.26,4.85-2.51s-.87-1-.87-1.5S24,18.87,24,17.65s-1.15-1.42-1.15-1.84"/></g></g></g></g></svg>