<svg xmlns="http://www.w3.org/2000/svg" xmlns:xlink="http://www.w3.org/1999/xlink" viewBox="0 0 24 24"><defs><style>.cls-1{fill:none;}.cls-2{fill:#292929;}.cls-3{clip-path:url(#clip-path);}</style><clipPath id="clip-path"><path class="cls-1" d="M-63.9-394.8a1.34,1.34,0,0,1,1.33,1.34,1.34,1.34,0,0,1-1.33,1.33,1.34,1.34,0,0,1-1.34-1.33A1.34,1.34,0,0,1-63.9-394.8Zm0-3.5a4.84,4.84,0,0,0-4.84,4.84,4.84,4.84,0,0,0,4.84,4.83h0a4.83,4.83,0,0,0,4.81-4.83v0A4.83,4.83,0,0,0-63.9-398.3Zm0-3a.5.5,0,0,1,.49.41v1.62A5.84,5.84,0,0,1-58.09-394h1.52a.5.5,0,0,1,.5.5.5.5,0,0,1-.41.49h-1.61a5.84,5.84,0,0,1-5.31,5.31v1.52a.5.5,0,0,1-.5.5.5.5,0,0,1-.49-.41v-1.61A5.82,5.82,0,0,1-69.71-393h-1.53a.51.51,0,0,1-.5-.5.5.5,0,0,1,.41-.49h1.62a5.8,5.8,0,0,1,5.31-5.31v-1.53A.5.5,0,0,1-63.9-401.3Z"/></clipPath></defs><g id="圖層_1" data-name="圖層 1"><path class="cls-2" d="M22.74,13.48c-.51-.92,1.7-1.72.91-3.93A2.24,2.24,0,0,0,21.23,8H17.09c-.67,0-.12-.77.17-2h0a4.52,4.52,0,0,0-.18-2.8C16,.45,13.2-.29,11.43,1s0,1.84-1.27,4.18S9.09,6.61,7.73,8.24C6.25,10,6.73,10.42,6,10.42H2.18a2,2,0,0,0-2,2v9.2a2,2,0,0,0,2,2H18.75c1.8-.35,3.08-.37,4-2.41s-.63-3.05,0-3.89A4.52,4.52,0,0,0,22.74,13.48ZM21.59,11c0,.07-.21.31-.21.31a4.73,4.73,0,0,0-.29.44,2.86,2.86,0,0,0-.42,1.75,2.73,2.73,0,0,0,.32,1,2.81,2.81,0,0,1,.18,1c0,.4-.05.68,0,.65a2.8,2.8,0,0,0-.53,2.11,3.6,3.6,0,0,0,.16.67c0,.11.17.52.14.43a1.19,1.19,0,0,1,0,1.06c-.35.8-.51.89-1.78,1.12l-.36.07-.21,0H8.18V15.37a1,1,0,1,0-2,0v6.25h-4v-9.2H6a2.45,2.45,0,0,0,2.22-1.18c.1-.16.34-.64.4-.74a7.21,7.21,0,0,1,.7-1,5.5,5.5,0,0,1,.94-.95l.22-.2a8.46,8.46,0,0,0,1.5-2.26,5.48,5.48,0,0,0,.67-3.49h0c.78-.56,2.06-.12,2.64,1.3A2.8,2.8,0,0,1,15.19,6c0,.12-.18.52-.19.56a4.48,4.48,0,0,0-.2.78A2.25,2.25,0,0,0,17.09,10h4.14c.43,0,.44,0,.54.27S21.85,10.57,21.59,11Z"/></g></svg>